<?xml version="1.0" encoding="utf-8"?>
<!-- Generator: Adobe Illustrator 22.1.0, SVG Export Plug-In . SVG Version: 6.00 Build 0)  -->
<svg version="1.1" id="Layer_1" xmlns="http://www.w3.org/2000/svg" xmlns:xlink="http://www.w3.org/1999/xlink" x="0px" y="0px"
	 viewBox="0 0 1000 700" style="enable-background:new 0 0 1000 700;" xml:space="preserve">
<style type="text/css">
	.st0{fill:#A6FFEA;}
</style>
<g>
	<g>
		<path d="M607.4,422.3h-48.1c-4,0-7.7-1.8-10.2-4.8c-2.5-3.1-3.5-7.1-2.7-11L568,302.2c1.5-7.1,8.5-11.7,15.6-10.2
			c7.1,1.5,11.7,8.5,10.2,15.6l-18.3,88.4h31.9c7.3,0,13.2,5.9,13.2,13.2C620.7,416.4,614.7,422.3,607.4,422.3z"/>
		<path class="st0" d="M604.3,408.6h-48.1c-1,0-2.1-0.5-2.7-1.3c-0.6-0.8-0.9-1.9-0.7-2.9l21.6-104.2c0.4-1.9,2.2-3.1,4.1-2.7
			c1.9,0.4,3.1,2.2,2.7,4.1l-20.8,100.1h43.9c1.9,0,3.5,1.6,3.5,3.5C607.8,407.1,606.2,408.6,604.3,408.6z"/>
	</g>
	<g>
		<path d="M525,422.3h-39c-4,0-7.7-1.8-10.2-4.9s-3.5-7.1-2.6-11l22-104.2c1.3-6.1,6.7-10.5,12.9-10.5h40.7c4,0,7.7,1.8,10.2,4.8
			c2.5,3.1,3.5,7.1,2.7,11L547.4,377c-1.3,6.1-6.7,10.5-12.9,10.5H504l-1.8,8.4h22.7c7.3,0,13.2,5.9,13.2,13.2
			C538.1,416.4,532.2,422.3,525,422.3z M509.6,361.2h14.1l8.9-43.1h-13.8L509.6,361.2z"/>
		<g>
			<path class="st0" d="M521.8,408.6h-39c-1,0-2.1-0.5-2.7-1.3c-0.6-0.8-0.9-1.9-0.7-2.9l22-104.2c0.3-1.6,1.8-2.7,3.4-2.7h40.7
				c1,0,2,0.5,2.7,1.3c0.6,0.8,0.9,1.9,0.7,2.9l-14.2,69.5c-0.3,1.6-1.8,2.8-3.4,2.8H501c-1.9,0-3.5-1.6-3.5-3.5
				c0-1.9,1.6-3.5,3.5-3.5h27.5l12.8-62.6h-33.6l-20.6,97.3h34.7c1.9,0,3.5,1.6,3.5,3.5C525.3,407.1,523.7,408.6,521.8,408.6z"/>
		</g>
	</g>
	<g>
		<g>
			<path d="M678.6,422.3h-40.7c-4,0-7.7-1.8-10.2-4.8c-2.5-3.1-3.5-7.1-2.7-11l14.2-69.5c1.3-6.1,6.7-10.5,12.9-10.5h30.4l1.8-8.4
				h-22.7c-7.3,0-13.2-5.9-13.2-13.2s5.9-13.2,13.2-13.2h39c4,0,7.7,1.8,10.2,4.9c2.5,3.1,3.5,7.1,2.6,11l-22,104.2
				C690.2,417.9,684.8,422.3,678.6,422.3z M654,395.9h13.8l9.1-43.1h-14.1L654,395.9z"/>
		</g>
		<g>
			<path class="st0" d="M675.4,408.6h-40.7c-1,0-2-0.5-2.7-1.3c-0.6-0.8-0.9-1.9-0.7-2.9l14.2-69.5c0.3-1.6,1.8-2.8,3.4-2.8h29.7
				c1.9,0,3.5,1.6,3.5,3.5s-1.6,3.5-3.5,3.5h-26.8l-12.8,62.6h33.6l20.6-97.3h-34.7c-1.9,0-3.5-1.6-3.5-3.5s1.6-3.5,3.5-3.5h39
				c1,0,2.1,0.5,2.7,1.3c0.6,0.8,0.9,1.9,0.7,2.9l-22,104.2C678.5,407.5,677.1,408.6,675.4,408.6z"/>
		</g>
	</g>
	<g>
		<g>
			<path d="M454.1,422.3h-40.7c-4,0-7.7-1.8-10.2-4.8c-2.5-3.1-3.5-7.1-2.7-11l21.7-104.2c1.5-7.1,8.4-11.7,15.6-10.2
				c7.1,1.5,11.7,8.5,10.2,15.6l-3.9,18.9h24.4c4,0,7.7,1.8,10.2,4.8c2.5,3.1,3.5,7.1,2.7,11L467,411.8
				C465.8,417.9,460.4,422.3,454.1,422.3z M429.6,395.9h13.8l8.9-43.1h-13.8L429.6,395.9z"/>
			<path class="st0" d="M451,408.6h-40.7c-1,0-2.1-0.5-2.7-1.3c-0.6-0.8-0.9-1.9-0.7-2.9l21.6-104.3c0.4-1.9,2.2-3.1,4.1-2.7
				c1.9,0.4,3.1,2.2,2.7,4.1l-20.8,100.1h33.6l12.9-62.6h-26.2c-1.9,0-3.5-1.6-3.5-3.5s1.6-3.5,3.5-3.5h30.5c1,0,2,0.5,2.7,1.3
				c0.6,0.8,0.9,1.9,0.7,2.9l-14.3,69.5C454.1,407.4,452.7,408.6,451,408.6z"/>
		</g>
	</g>
</g>
<g>
	<path d="M497.7,453.6h-3.8v-21.1h3.8v8.3h0.5c0.4-0.8,1-1.5,1.8-1.9c0.8-0.5,1.7-0.7,2.9-0.7c0.9,0,1.7,0.2,2.5,0.5
		c0.8,0.3,1.5,0.8,2.1,1.5c0.6,0.7,1.1,1.5,1.4,2.4c0.4,0.9,0.5,2,0.5,3.2v0.5c0,1.2-0.2,2.3-0.5,3.3c-0.3,0.9-0.8,1.7-1.4,2.4
		c-0.6,0.7-1.3,1.1-2.1,1.5c-0.8,0.3-1.7,0.5-2.6,0.5c-0.7,0-1.3-0.1-1.8-0.2c-0.5-0.1-0.9-0.3-1.3-0.6c-0.4-0.2-0.7-0.5-0.9-0.8
		c-0.3-0.3-0.5-0.6-0.6-1h-0.5V453.6z M501.7,450.4c1.2,0,2.1-0.4,2.9-1.1c0.7-0.7,1.1-1.7,1.1-3V446c0-1.3-0.4-2.3-1.1-3
		c-0.7-0.7-1.7-1.1-2.9-1.1c-1.2,0-2.1,0.4-2.9,1.1c-0.7,0.8-1.1,1.7-1.1,3v0.4c0,1.2,0.4,2.2,1.1,3
		C499.5,450,500.5,450.4,501.7,450.4z"/>
	<path d="M516.3,447.4c0,0.4,0.1,0.9,0.3,1.2c0.2,0.4,0.5,0.7,0.8,1c0.3,0.3,0.7,0.5,1.1,0.6c0.4,0.2,0.9,0.2,1.4,0.2
		c0.9,0,1.7-0.2,2.2-0.5s0.9-0.7,1.1-1.2l3.3,1.8c-0.2,0.4-0.4,0.8-0.8,1.2c-0.3,0.4-0.7,0.8-1.3,1.1s-1.1,0.6-1.9,0.8
		c-0.7,0.2-1.6,0.3-2.6,0.3c-1.1,0-2.2-0.2-3.1-0.5c-0.9-0.4-1.7-0.9-2.4-1.6s-1.2-1.5-1.6-2.5c-0.4-1-0.6-2.1-0.6-3.4v-0.2
		c0-1.1,0.2-2.2,0.6-3.1c0.4-0.9,0.9-1.8,1.6-2.4c0.7-0.7,1.5-1.2,2.4-1.6s1.9-0.6,2.9-0.6c1.3,0,2.4,0.2,3.3,0.7s1.7,1,2.3,1.7
		c0.6,0.7,1,1.5,1.3,2.3c0.3,0.8,0.4,1.6,0.4,2.4v2H516.3z M519.9,441.7c-1,0-1.8,0.2-2.4,0.7s-1,1.1-1.2,1.7h7.1
		c-0.1-0.7-0.5-1.3-1.1-1.8C521.7,441.9,520.9,441.7,519.9,441.7z"/>
	<path d="M531.4,450h5.3v-13.9h-5.1v-3.6h8.9V450h4.9v3.6h-14V450z"/>
	<path d="M559.7,451.5c-0.4,0.9-1,1.6-1.7,2s-1.6,0.6-2.5,0.6c-0.9,0-1.8-0.2-2.6-0.5c-0.8-0.3-1.5-0.8-2.1-1.5
		c-0.6-0.7-1.1-1.5-1.4-2.4c-0.4-0.9-0.5-2-0.5-3.2v-0.5c0-1.2,0.2-2.3,0.5-3.2s0.8-1.8,1.4-2.4c0.6-0.7,1.3-1.2,2-1.5
		s1.6-0.5,2.5-0.5c1.1,0,1.9,0.2,2.6,0.5c0.7,0.4,1.2,0.9,1.6,1.7h0.5v-1.8h3.8v10.5c0,0.6,0.3,0.9,0.8,0.9h0.6v3.6h-2.6
		c-0.7,0-1.2-0.2-1.7-0.6c-0.4-0.4-0.6-0.9-0.6-1.6H559.7z M556.3,450.4c1.1,0,2-0.4,2.7-1.1c0.7-0.7,1-1.7,1-3V446
		c0-1.3-0.3-2.3-1-3c-0.7-0.7-1.6-1.1-2.7-1.1c-1.1,0-2,0.4-2.7,1.1c-0.7,0.7-1,1.7-1,3v0.4c0,1.3,0.3,2.3,1,3
		C554.3,450.1,555.2,450.4,556.3,450.4z"/>
	<path d="M578.2,451.2c0,0.4-0.1,0.8-0.2,1.1c-0.2,0.4-0.4,0.7-0.6,0.9c-0.3,0.3-0.6,0.5-0.9,0.6s-0.7,0.2-1.1,0.2
		c-0.4,0-0.8-0.1-1.1-0.2c-0.3-0.2-0.6-0.4-0.9-0.6c-0.3-0.3-0.5-0.6-0.6-0.9c-0.2-0.4-0.2-0.7-0.2-1.1c0-0.4,0.1-0.8,0.2-1.1
		c0.2-0.4,0.4-0.7,0.6-0.9c0.3-0.3,0.6-0.5,0.9-0.6c0.3-0.2,0.7-0.2,1.1-0.2c0.4,0,0.8,0.1,1.1,0.2s0.7,0.4,0.9,0.6s0.5,0.6,0.6,0.9
		C578.1,450.4,578.2,450.8,578.2,451.2z"/>
	<path d="M587.2,450h5.1v-7.7h-4.7v-3.6h8.5V450h4.4v3.6h-13.2V450z M597,434.2c0,0.4-0.1,0.8-0.2,1.1c-0.2,0.4-0.4,0.7-0.6,0.9
		s-0.6,0.5-0.9,0.6c-0.4,0.2-0.7,0.2-1.1,0.2c-0.4,0-0.8-0.1-1.1-0.2c-0.3-0.2-0.6-0.4-0.9-0.6s-0.5-0.6-0.6-0.9
		c-0.2-0.4-0.2-0.7-0.2-1.1c0-0.4,0.1-0.8,0.2-1.1c0.2-0.4,0.4-0.7,0.6-0.9s0.6-0.5,0.9-0.6s0.7-0.2,1.1-0.2c0.4,0,0.8,0.1,1.1,0.2
		c0.4,0.2,0.7,0.4,0.9,0.6s0.5,0.6,0.6,0.9C597,433.4,597,433.8,597,434.2z"/>
	<path d="M620.1,446.3c0,1.2-0.2,2.4-0.6,3.3c-0.4,1-1,1.8-1.7,2.4c-0.7,0.7-1.6,1.2-2.5,1.5c-0.9,0.3-1.9,0.5-2.9,0.5
		s-2-0.2-2.9-0.5c-0.9-0.3-1.8-0.8-2.5-1.5c-0.7-0.7-1.3-1.5-1.7-2.4c-0.4-1-0.6-2.1-0.6-3.3V446c0-1.2,0.2-2.3,0.6-3.3
		c0.4-1,1-1.8,1.7-2.4c0.7-0.7,1.6-1.2,2.5-1.5c0.9-0.3,1.9-0.5,2.9-0.5s2,0.2,2.9,0.5c0.9,0.3,1.8,0.8,2.5,1.5
		c0.7,0.7,1.3,1.5,1.7,2.4c0.4,1,0.6,2,0.6,3.3V446.3z M612.3,450.4c0.5,0,1.1-0.1,1.5-0.3c0.5-0.2,0.9-0.4,1.3-0.8
		c0.4-0.3,0.6-0.8,0.9-1.3c0.2-0.5,0.3-1.1,0.3-1.7v-0.6c0-0.6-0.1-1.2-0.3-1.7c-0.2-0.5-0.5-0.9-0.9-1.3c-0.4-0.3-0.8-0.6-1.3-0.8
		c-0.5-0.2-1-0.3-1.5-0.3s-1.1,0.1-1.5,0.3c-0.5,0.2-0.9,0.4-1.3,0.8c-0.4,0.3-0.6,0.8-0.9,1.3c-0.2,0.5-0.3,1.1-0.3,1.7v0.6
		c0,0.6,0.1,1.2,0.3,1.7c0.2,0.5,0.5,0.9,0.9,1.3c0.4,0.3,0.8,0.6,1.3,0.8C611.3,450.3,611.8,450.4,612.3,450.4z"/>
</g>
</svg>
