<?xml version="1.0" encoding="UTF-8"?>
<svg width="413.4" height="268.2" version="1.1" viewBox="0 0 413.4 268.2" xml:space="preserve" xmlns="http://www.w3.org/2000/svg"><style id="style" type="text/css">.st0{fill:#FFFFFF;}</style><g transform="translate(-293.73 -241.7)"><g id="B"><path d="m397.6 422.3h-40.7c-4 0-7.7-1.8-10.2-4.8-2.5-3.1-3.5-7.1-2.7-11l21.7-104.2c1.5-7.1 8.4-11.7 15.6-10.2 7.1 1.5 11.7 8.5 10.2 15.6l-3.9 18.9h24.4c4 0 7.7 1.8 10.2 4.8 2.5 3.1 3.5 7.1 2.7 11l-14.3 69.5c-1.4 6-6.7 10.4-13 10.4zm-24.5-26.4h13.8l8.9-43.1h-13.8z"/><path class="st0" d="m394.5 408.6h-40.7c-1 0-2.1-0.5-2.7-1.3s-0.9-1.9-0.7-2.9l21.6-104.2c0.4-1.9 2.2-3.1 4.1-2.7s3.1 2.2 2.7 4.1l-20.8 100.1h33.6l12.9-62.6h-26.2c-1.9 0-3.5-1.6-3.5-3.5s1.6-3.5 3.5-3.5h30.5c1 0 2 0.5 2.7 1.3 0.6 0.8 0.9 1.9 0.7 2.9l-14.3 69.5c-0.4 1.6-1.8 2.8-3.4 2.8z"/></g><g id="E"><path d="m468.4 422.3h-39c-4 0-7.7-1.8-10.2-4.9s-3.5-7.1-2.6-11l22-104.2c1.3-6.1 6.7-10.5 12.9-10.5h40.7c4 0 7.7 1.8 10.2 4.8 2.5 3.1 3.5 7.1 2.7 11l-14.2 69.5c-1.3 6.1-6.7 10.5-12.9 10.5h-30.5l-1.8 8.4h22.7c7.3 0 13.2 5.9 13.2 13.2s-5.9 13.2-13.2 13.2zm-15.4-61.1h14.1l8.9-43.1h-13.8z"/><path class="st0" d="m465.2 408.6h-39c-1 0-2.1-0.5-2.7-1.3s-0.9-1.9-0.7-2.9l22-104.2c0.3-1.6 1.8-2.7 3.4-2.7h40.8c1 0 2 0.5 2.7 1.3 0.6 0.8 0.9 1.9 0.7 2.9l-14.2 69.5c-0.3 1.6-1.8 2.8-3.4 2.8h-30.3c-1.9 0-3.5-1.6-3.5-3.5s1.6-3.5 3.5-3.5h27.5l12.8-62.6h-33.6l-20.6 97.3h34.7c1.9 0 3.5 1.6 3.5 3.5-0.1 1.9-1.6 3.4-3.6 3.4z"/></g><g id="L"><path d="m550.9 422.3h-48.1c-4 0-7.7-1.8-10.2-4.8-2.5-3.1-3.5-7.1-2.7-11l21.6-104.2c1.5-7.1 8.5-11.7 15.6-10.2s11.7 8.5 10.2 15.6l-18.3 88.2h31.9c7.3 0 13.2 5.9 13.2 13.2s-5.9 13.2-13.2 13.2z"/><path class="st0" d="m547.8 408.6h-48.1c-1 0-2.1-0.5-2.7-1.3s-0.9-1.9-0.7-2.9l21.6-104.2c0.4-1.9 2.2-3.1 4.1-2.7s3.1 2.2 2.7 4.1l-20.7 100.1h43.9c1.9 0 3.5 1.6 3.5 3.5-0.1 1.9-1.7 3.4-3.6 3.4z"/></g><g id="A"><path d="m622 422.3h-40.7c-4 0-7.7-1.8-10.2-4.8-2.5-3.1-3.5-7.1-2.7-11l14.2-69.5c1.3-6.1 6.7-10.5 12.9-10.5h30.4l1.8-8.4h-22.7c-7.3 0-13.2-5.9-13.2-13.2s5.9-13.2 13.2-13.2h39c4 0 7.7 1.8 10.2 4.9s3.5 7.1 2.6 11l-22 104.2c-1.2 6.1-6.5 10.5-12.8 10.5zm-24.5-26.4h13.8l9.1-43.1h-14.1z"/><path class="st0" d="m618.9 408.6h-40.7c-1 0-2-0.5-2.7-1.3-0.6-0.8-0.9-1.9-0.7-2.9l14.2-69.5c0.3-1.6 1.8-2.8 3.4-2.8h29.6c1.9 0 3.5 1.6 3.5 3.5s-1.6 3.5-3.5 3.5h-26.8l-12.8 62.6h33.6l20.6-97.3h-34.7c-1.9 0-3.5-1.6-3.5-3.5s1.6-3.5 3.5-3.5h39c1 0 2.1 0.5 2.7 1.3s0.9 1.9 0.7 2.9l-22 104.2c-0.4 1.7-1.8 2.8-3.4 2.8z"/></g><g id="bela.io"><path d="m496.5 459.5h-3.8v-21.1h3.8v8.3h0.5c0.4-0.8 1-1.5 1.8-1.9 0.8-0.5 1.7-0.7 2.9-0.7 0.9 0 1.7 0.2 2.5 0.5s1.5 0.8 2.1 1.5 1.1 1.5 1.4 2.4c0.4 0.9 0.5 2 0.5 3.2v0.5c0 1.2-0.2 2.3-0.5 3.3-0.3 0.9-0.8 1.7-1.4 2.4s-1.3 1.1-2.1 1.5c-0.8 0.3-1.7 0.5-2.6 0.5-0.7 0-1.3-0.1-1.8-0.2s-0.9-0.3-1.3-0.6c-0.4-0.2-0.7-0.5-0.9-0.8-0.3-0.3-0.5-0.6-0.6-1h-0.5zm4-3.2c1.2 0 2.1-0.4 2.9-1.1 0.7-0.7 1.1-1.7 1.1-3v-0.4c0-1.3-0.4-2.3-1.1-3s-1.7-1.1-2.9-1.1-2.1 0.4-2.9 1.1c-0.7 0.8-1.1 1.7-1.1 3v0.4c0 1.2 0.4 2.2 1.1 3 0.8 0.7 1.7 1.1 2.9 1.1z"/><path d="m515.2 453.3c0 0.4 0.1 0.9 0.3 1.2s0.5 0.7 0.8 1 0.7 0.5 1.1 0.6c0.4 0.2 0.9 0.2 1.4 0.2 0.9 0 1.7-0.2 2.2-0.5s0.9-0.7 1.1-1.2l3.3 1.8c-0.2 0.4-0.4 0.8-0.8 1.2-0.3 0.4-0.7 0.8-1.3 1.1s-1.1 0.6-1.9 0.8c-0.7 0.2-1.6 0.3-2.6 0.3-1.1 0-2.2-0.2-3.1-0.5s-1.7-0.9-2.4-1.6-1.2-1.5-1.6-2.5-0.6-2.1-0.6-3.4v-0.2c0-1.1 0.2-2.2 0.6-3.1s0.9-1.8 1.6-2.4c0.7-0.7 1.5-1.2 2.4-1.6s1.9-0.6 2.9-0.6c1.3 0 2.4 0.2 3.3 0.7s1.7 1 2.3 1.7 1 1.5 1.3 2.3 0.4 1.6 0.4 2.4v2h-10.7zm3.6-5.7c-1 0-1.8 0.2-2.4 0.7s-1 1.1-1.2 1.7h7.1c-0.1-0.7-0.5-1.3-1.1-1.8-0.6-0.4-1.4-0.6-2.4-0.6z"/><path d="m530.2 455.9h5.3v-13.9h-5.1v-3.6h8.9v17.5h4.9v3.6h-14z"/><path d="m558.5 457.3c-0.4 0.9-1 1.6-1.7 2s-1.6 0.6-2.5 0.6-1.8-0.2-2.6-0.5-1.5-0.8-2.1-1.5-1.1-1.5-1.4-2.4c-0.4-0.9-0.5-2-0.5-3.2v-0.5c0-1.2 0.2-2.3 0.5-3.2s0.8-1.8 1.4-2.4c0.6-0.7 1.3-1.2 2-1.5s1.6-0.5 2.5-0.5c1.1 0 1.9 0.2 2.6 0.5 0.7 0.4 1.2 0.9 1.6 1.7h0.5v-1.8h3.8v10.4c0 0.6 0.3 0.9 0.8 0.9h0.6v3.6h-2.6c-0.7 0-1.2-0.2-1.7-0.6-0.4-0.4-0.6-0.9-0.6-1.6zm-3.4-1c1.1 0 2-0.4 2.7-1.1s1-1.7 1-3v-0.4c0-1.3-0.3-2.3-1-3s-1.6-1.1-2.7-1.1-2 0.4-2.7 1.1-1 1.7-1 3v0.4c0 1.3 0.3 2.3 1 3 0.7 0.8 1.6 1.1 2.7 1.1z"/><path d="m577.1 457.1c0 0.4-0.1 0.8-0.2 1.1-0.2 0.4-0.4 0.7-0.6 0.9-0.3 0.3-0.6 0.5-0.9 0.6-0.4 0.2-0.7 0.2-1.1 0.2s-0.8-0.1-1.1-0.2l-0.9-0.6c-0.3-0.3-0.5-0.6-0.6-0.9-0.2-0.4-0.2-0.7-0.2-1.1s0.1-0.8 0.2-1.1c0.2-0.4 0.4-0.7 0.6-0.9s0.6-0.5 0.9-0.6c0.3-0.2 0.7-0.2 1.1-0.2s0.8 0.1 1.1 0.2c0.4 0.2 0.7 0.4 0.9 0.6s0.5 0.6 0.6 0.9 0.2 0.7 0.2 1.1z"/><path d="m586.1 455.9h5.1v-7.7h-4.7v-3.6h8.5v11.4h4.4v3.6h-13.2v-3.7zm9.8-15.8c0 0.4-0.1 0.8-0.2 1.1-0.2 0.4-0.4 0.7-0.6 0.9-0.3 0.3-0.6 0.5-0.9 0.6-0.4 0.2-0.7 0.2-1.1 0.2s-0.8-0.1-1.1-0.2l-0.9-0.6c-0.3-0.2-0.5-0.6-0.6-0.9-0.2-0.4-0.2-0.7-0.2-1.1s0.1-0.8 0.2-1.1c0.2-0.4 0.4-0.7 0.6-0.9s0.6-0.5 0.9-0.6c0.3-0.2 0.7-0.2 1.1-0.2s0.8 0.1 1.1 0.2c0.4 0.2 0.7 0.4 0.9 0.6 0.3 0.3 0.5 0.6 0.6 0.9s0.2 0.7 0.2 1.1z"/><path d="m619 452.2c0 1.2-0.2 2.4-0.6 3.3-0.4 1-1 1.8-1.7 2.4s-1.6 1.2-2.5 1.5-1.9 0.5-2.9 0.5-2-0.2-2.9-0.5-1.8-0.8-2.5-1.5-1.3-1.5-1.7-2.4c-0.4-1-0.6-2.1-0.6-3.3v-0.4c0-1.2 0.2-2.3 0.6-3.3s1-1.8 1.7-2.4c0.7-0.7 1.6-1.2 2.5-1.5s1.9-0.5 2.9-0.5 2 0.2 2.9 0.5 1.8 0.8 2.5 1.5 1.3 1.5 1.7 2.4c0.4 1 0.6 2 0.6 3.3zm-7.8 4.1c0.5 0 1.1-0.1 1.5-0.3 0.5-0.2 0.9-0.4 1.3-0.8 0.4-0.3 0.6-0.8 0.9-1.3 0.2-0.5 0.3-1.1 0.3-1.7v-0.6c0-0.6-0.1-1.2-0.3-1.7s-0.5-0.9-0.9-1.3c-0.4-0.3-0.8-0.6-1.3-0.8s-1-0.3-1.5-0.3-1.1 0.1-1.5 0.3c-0.5 0.2-0.9 0.4-1.3 0.8-0.4 0.3-0.6 0.8-0.9 1.3s-0.3 1.1-0.3 1.7v0.6c0 0.6 0.1 1.2 0.3 1.7s0.5 0.9 0.9 1.3c0.4 0.3 0.8 0.6 1.3 0.8 0.4 0.2 0.9 0.3 1.5 0.3z"/></g></g></svg>
