<?xml version="1.0" encoding="UTF-8"?>
<svg width="413.5" height="230.6" version="1.1" viewBox="0 0 413.5 230.6" xml:space="preserve" xmlns="http://www.w3.org/2000/svg"><style type="text/css">
	.st0{fill:#FFFFFF;}
</style><g id="BELA" transform="translate(-321.33 -241.7)"><g id="B"><path d="m425.2 422.3h-40.7c-4 0-7.7-1.8-10.2-4.8-2.5-3.1-3.5-7.1-2.7-11l21.7-104.2c1.5-7.1 8.4-11.7 15.6-10.2 7.1 1.5 11.7 8.5 10.2 15.6l-3.9 18.9h24.4c4 0 7.7 1.8 10.2 4.8 2.5 3.1 3.5 7.1 2.7 11l-14.3 69.5c-1.3 6-6.7 10.4-13 10.4zm-24.5-26.4h13.8l8.9-43.1h-13.8z"/><path class="st0" d="m422.1 408.6h-40.7c-1 0-2.1-0.5-2.7-1.3s-0.9-1.9-0.7-2.9l21.6-104.3c0.4-1.9 2.2-3.1 4.1-2.7s3.1 2.2 2.7 4.1l-20.8 100.1h33.6l12.9-62.6h-26.2c-1.9 0-3.5-1.6-3.5-3.5s1.6-3.5 3.5-3.5h30.5c1 0 2 0.5 2.7 1.3 0.6 0.8 0.9 1.9 0.7 2.9l-14.3 69.5c-0.3 1.7-1.8 2.9-3.4 2.9z"/></g><g id="E"><path d="m496 422.3h-39c-4 0-7.7-1.8-10.2-4.9s-3.5-7.1-2.6-11l22-104.2c1.3-6.1 6.7-10.5 12.9-10.5h40.7c4 0 7.7 1.8 10.2 4.8 2.5 3.1 3.5 7.1 2.7 11l-14.2 69.5c-1.3 6.1-6.7 10.5-12.9 10.5h-30.5l-1.8 8.4h22.7c7.3 0 13.2 5.9 13.2 13.2s-5.9 13.2-13.2 13.2zm-15.3-61.1h14.1l8.9-43.1h-13.8z"/><path class="st0" d="m492.9 408.6h-39c-1 0-2.1-0.5-2.7-1.3s-0.9-1.9-0.7-2.9l22-104.2c0.3-1.6 1.8-2.7 3.4-2.7h40.7c1 0 2 0.5 2.7 1.3 0.6 0.8 0.9 1.9 0.7 2.9l-14.2 69.5c-0.3 1.6-1.8 2.8-3.4 2.8h-30.3c-1.9 0-3.5-1.6-3.5-3.5s1.6-3.5 3.5-3.5h27.5l12.8-62.6h-33.6l-20.6 97.3h34.7c1.9 0 3.5 1.6 3.5 3.5-0.1 1.9-1.6 3.4-3.5 3.4z"/></g><g id="L"><path d="m578.5 422.3h-48.1c-4 0-7.7-1.8-10.2-4.8-2.5-3.1-3.5-7.1-2.7-11l21.6-104.2c1.5-7.1 8.5-11.7 15.6-10.2s11.7 8.5 10.2 15.6l-18.3 88.4h31.9c7.3 0 13.2 5.9 13.2 13.2 0.1 7.1-5.9 13-13.2 13z"/><path class="st0" d="m575.4 408.6h-48.1c-1 0-2.1-0.5-2.7-1.3s-0.9-1.9-0.7-2.9l21.6-104.2c0.4-1.9 2.2-3.1 4.1-2.7s3.1 2.2 2.7 4.1l-20.8 100.1h43.9c1.9 0 3.5 1.6 3.5 3.5s-1.6 3.4-3.5 3.4z"/></g><g id="A"><path d="m649.7 422.3h-40.7c-4 0-7.7-1.8-10.2-4.8-2.5-3.1-3.5-7.1-2.7-11l14.2-69.5c1.3-6.1 6.7-10.5 12.9-10.5h30.4l1.8-8.4h-22.7c-7.3 0-13.2-5.9-13.2-13.2s5.9-13.2 13.2-13.2h39c4 0 7.7 1.8 10.2 4.9s3.5 7.1 2.6 11l-22 104.2c-1.2 6.1-6.6 10.5-12.8 10.5zm-24.6-26.4h13.8l9.1-43.1h-14.1z"/><path class="st0" d="m646.5 408.6h-40.7c-1 0-2-0.5-2.7-1.3-0.6-0.8-0.9-1.9-0.7-2.9l14.2-69.5c0.3-1.6 1.8-2.8 3.4-2.8h29.7c1.9 0 3.5 1.6 3.5 3.5s-1.6 3.5-3.5 3.5h-26.8l-12.9 62.6h33.6l20.6-97.3h-34.7c-1.9 0-3.5-1.6-3.5-3.5s1.6-3.5 3.5-3.5h39c1 0 2.1 0.5 2.7 1.3s0.9 1.9 0.7 2.9l-22 104.2c-0.3 1.7-1.8 2.8-3.4 2.8z"/></g></g></svg>
