<?xml version="1.0" encoding="utf-8"?>
<!-- Generator: Adobe Illustrator 22.1.0, SVG Export Plug-In . SVG Version: 6.00 Build 0)  -->
<svg version="1.1" id="Layer_1" xmlns="http://www.w3.org/2000/svg" xmlns:xlink="http://www.w3.org/1999/xlink" x="0px" y="0px"
	 viewBox="0 0 1000 700" style="enable-background:new 0 0 1000 700;" xml:space="preserve">
<style type="text/css">
	.st0{fill:#FFFFFF;}
</style>
<g>
	<g>
		<path d="M550.9,422.3h-48.1c-4,0-7.7-1.8-10.2-4.8c-2.5-3.1-3.5-7.1-2.7-11l21.6-104.2c1.5-7.1,8.5-11.7,15.6-10.2
			c7.1,1.5,11.7,8.5,10.2,15.6L519,395.9h31.9c7.3,0,13.2,5.9,13.2,13.2C564.1,416.4,558.2,422.3,550.9,422.3z"/>
		<path class="st0" d="M547.8,408.6h-48.1c-1,0-2.1-0.5-2.7-1.3c-0.6-0.8-0.9-1.9-0.7-2.9l21.6-104.2c0.4-1.9,2.2-3.1,4.1-2.7
			c1.9,0.4,3.1,2.2,2.7,4.1L504,401.7h43.9c1.9,0,3.5,1.6,3.5,3.5C551.3,407.1,549.7,408.6,547.8,408.6z"/>
	</g>
	<g>
		<path d="M468.4,422.3h-39c-4,0-7.7-1.8-10.2-4.9s-3.5-7.1-2.6-11l22-104.2c1.3-6.1,6.7-10.5,12.9-10.5h40.7c4,0,7.7,1.8,10.2,4.8
			c2.5,3.1,3.5,7.1,2.7,11L490.9,377c-1.3,6.1-6.7,10.5-12.9,10.5h-30.5l-1.8,8.4h22.7c7.3,0,13.2,5.9,13.2,13.2
			C481.6,416.4,475.7,422.3,468.4,422.3z M453,361.2h14.1l8.9-43.1h-13.8L453,361.2z"/>
		<g>
			<path class="st0" d="M465.2,408.6h-39c-1,0-2.1-0.5-2.7-1.3c-0.6-0.8-0.9-1.9-0.7-2.9l22-104.2c0.3-1.6,1.8-2.7,3.4-2.7H489
				c1,0,2,0.5,2.7,1.3c0.6,0.8,0.9,1.9,0.7,2.9l-14.2,69.5c-0.3,1.6-1.8,2.8-3.4,2.8h-30.3c-1.9,0-3.5-1.6-3.5-3.5
				c0-1.9,1.6-3.5,3.5-3.5h27.5l12.8-62.6h-33.6l-20.6,97.3h34.7c1.9,0,3.5,1.6,3.5,3.5C468.7,407.1,467.2,408.6,465.2,408.6z"/>
		</g>
	</g>
	<g>
		<g>
			<path d="M622,422.3h-40.7c-4,0-7.7-1.8-10.2-4.8c-2.5-3.1-3.5-7.1-2.7-11l14.2-69.5c1.3-6.1,6.7-10.5,12.9-10.5h30.4l1.8-8.4
				h-22.7c-7.3,0-13.2-5.9-13.2-13.2s5.9-13.2,13.2-13.2h39c4,0,7.7,1.8,10.2,4.9c2.5,3.1,3.5,7.1,2.6,11l-22,104.2
				C633.6,417.9,628.3,422.3,622,422.3z M597.5,395.9h13.8l9.1-43.1h-14.1L597.5,395.9z"/>
		</g>
		<g>
			<path class="st0" d="M618.9,408.6h-40.7c-1,0-2-0.5-2.7-1.3c-0.6-0.8-0.9-1.9-0.7-2.9l14.2-69.5c0.3-1.6,1.8-2.8,3.4-2.8H622
				c1.9,0,3.5,1.6,3.5,3.5s-1.6,3.5-3.5,3.5h-26.8l-12.8,62.6H616l20.6-97.3h-34.7c-1.9,0-3.5-1.6-3.5-3.5s1.6-3.5,3.5-3.5h39
				c1,0,2.1,0.5,2.7,1.3c0.6,0.8,0.9,1.9,0.7,2.9l-22,104.2C621.9,407.5,620.5,408.6,618.9,408.6z"/>
		</g>
	</g>
	<g>
		<g>
			<path d="M397.6,422.3h-40.7c-4,0-7.7-1.8-10.2-4.8c-2.5-3.1-3.5-7.1-2.7-11l21.7-104.2c1.5-7.1,8.4-11.7,15.6-10.2
				c7.1,1.5,11.7,8.5,10.2,15.6l-3.9,18.9h24.4c4,0,7.7,1.8,10.2,4.8c2.5,3.1,3.5,7.1,2.7,11l-14.3,69.5
				C409.2,417.9,403.9,422.3,397.6,422.3z M373.1,395.9h13.8l8.9-43.1H382L373.1,395.9z"/>
			<path class="st0" d="M394.5,408.6h-40.7c-1,0-2.1-0.5-2.7-1.3c-0.6-0.8-0.9-1.9-0.7-2.9L372,300.2c0.4-1.9,2.2-3.1,4.1-2.7
				c1.9,0.4,3.1,2.2,2.7,4.1L358,401.7h33.6l12.9-62.6h-26.2c-1.9,0-3.5-1.6-3.5-3.5s1.6-3.5,3.5-3.5h30.5c1,0,2,0.5,2.7,1.3
				c0.6,0.8,0.9,1.9,0.7,2.9l-14.3,69.5C397.5,407.4,396.1,408.6,394.5,408.6z"/>
		</g>
	</g>
</g>
<g>
	<path d="M496.5,459.5h-3.8v-21.1h3.8v8.3h0.5c0.4-0.8,1-1.5,1.8-1.9c0.8-0.5,1.7-0.7,2.9-0.7c0.9,0,1.7,0.2,2.5,0.5
		c0.8,0.3,1.5,0.8,2.1,1.5s1.1,1.5,1.4,2.4c0.4,0.9,0.5,2,0.5,3.2v0.5c0,1.2-0.2,2.3-0.5,3.3c-0.3,0.9-0.8,1.7-1.4,2.4
		s-1.3,1.1-2.1,1.5c-0.8,0.3-1.7,0.5-2.6,0.5c-0.7,0-1.3-0.1-1.8-0.2c-0.5-0.1-0.9-0.3-1.3-0.6c-0.4-0.2-0.7-0.5-0.9-0.8
		c-0.3-0.3-0.5-0.6-0.6-1h-0.5V459.5z M500.5,456.3c1.2,0,2.1-0.4,2.9-1.1c0.7-0.7,1.1-1.7,1.1-3v-0.4c0-1.3-0.4-2.3-1.1-3
		c-0.7-0.7-1.7-1.1-2.9-1.1c-1.2,0-2.1,0.4-2.9,1.1c-0.7,0.8-1.1,1.7-1.1,3v0.4c0,1.2,0.4,2.2,1.1,3
		C498.4,455.9,499.3,456.3,500.5,456.3z"/>
	<path d="M515.2,453.3c0,0.4,0.1,0.9,0.3,1.2s0.5,0.7,0.8,1c0.3,0.3,0.7,0.5,1.1,0.6c0.4,0.2,0.9,0.2,1.4,0.2c0.9,0,1.7-0.2,2.2-0.5
		c0.5-0.3,0.9-0.7,1.1-1.2l3.3,1.8c-0.2,0.4-0.4,0.8-0.8,1.2c-0.3,0.4-0.7,0.8-1.3,1.1s-1.1,0.6-1.9,0.8c-0.7,0.2-1.6,0.3-2.6,0.3
		c-1.1,0-2.2-0.2-3.1-0.5s-1.7-0.9-2.4-1.6s-1.2-1.5-1.6-2.5c-0.4-1-0.6-2.1-0.6-3.4v-0.2c0-1.1,0.2-2.2,0.6-3.1
		c0.4-0.9,0.9-1.8,1.6-2.4c0.7-0.7,1.5-1.2,2.4-1.6c0.9-0.4,1.9-0.6,2.9-0.6c1.3,0,2.4,0.2,3.3,0.7s1.7,1,2.3,1.7
		c0.6,0.7,1,1.5,1.3,2.3c0.3,0.8,0.4,1.6,0.4,2.4v2H515.2z M518.8,447.6c-1,0-1.8,0.2-2.4,0.7s-1,1.1-1.2,1.7h7.1
		c-0.1-0.7-0.5-1.3-1.1-1.8C520.6,447.8,519.8,447.6,518.8,447.6z"/>
	<path d="M530.2,455.9h5.3V442h-5.1v-3.6h8.9v17.5h4.9v3.6h-14V455.9z"/>
	<path d="M558.5,457.3c-0.4,0.9-1,1.6-1.7,2s-1.6,0.6-2.5,0.6c-0.9,0-1.8-0.2-2.6-0.5c-0.8-0.3-1.5-0.8-2.1-1.5
		c-0.6-0.7-1.1-1.5-1.4-2.4c-0.4-0.9-0.5-2-0.5-3.2v-0.5c0-1.2,0.2-2.3,0.5-3.2c0.3-0.9,0.8-1.8,1.4-2.4c0.6-0.7,1.3-1.2,2-1.5
		s1.6-0.5,2.5-0.5c1.1,0,1.9,0.2,2.6,0.5c0.7,0.4,1.2,0.9,1.6,1.7h0.5v-1.8h3.8V455c0,0.6,0.3,0.9,0.8,0.9h0.6v3.6h-2.6
		c-0.7,0-1.2-0.2-1.7-0.6c-0.4-0.4-0.6-0.9-0.6-1.6H558.5z M555.1,456.3c1.1,0,2-0.4,2.7-1.1c0.7-0.7,1-1.7,1-3v-0.4
		c0-1.3-0.3-2.3-1-3c-0.7-0.7-1.6-1.1-2.7-1.1s-2,0.4-2.7,1.1c-0.7,0.7-1,1.7-1,3v0.4c0,1.3,0.3,2.3,1,3
		C553.1,456,554,456.3,555.1,456.3z"/>
	<path d="M577.1,457.1c0,0.4-0.1,0.8-0.2,1.1c-0.2,0.4-0.4,0.7-0.6,0.9c-0.3,0.3-0.6,0.5-0.9,0.6c-0.4,0.2-0.7,0.2-1.1,0.2
		c-0.4,0-0.8-0.1-1.1-0.2c-0.3-0.2-0.6-0.4-0.9-0.6c-0.3-0.3-0.5-0.6-0.6-0.9c-0.2-0.4-0.2-0.7-0.2-1.1c0-0.4,0.1-0.8,0.2-1.1
		c0.2-0.4,0.4-0.7,0.6-0.9s0.6-0.5,0.9-0.6c0.3-0.2,0.7-0.2,1.1-0.2c0.4,0,0.8,0.1,1.1,0.2c0.4,0.2,0.7,0.4,0.9,0.6s0.5,0.6,0.6,0.9
		S577.1,456.7,577.1,457.1z"/>
	<path d="M586.1,455.9h5.1v-7.7h-4.7v-3.6h8.5v11.4h4.4v3.6h-13.2V455.9z M595.9,440.1c0,0.4-0.1,0.8-0.2,1.1
		c-0.2,0.4-0.4,0.7-0.6,0.9c-0.3,0.3-0.6,0.5-0.9,0.6c-0.4,0.2-0.7,0.2-1.1,0.2c-0.4,0-0.8-0.1-1.1-0.2c-0.3-0.2-0.6-0.4-0.9-0.6
		s-0.5-0.6-0.6-0.9c-0.2-0.4-0.2-0.7-0.2-1.1c0-0.4,0.1-0.8,0.2-1.1c0.2-0.4,0.4-0.7,0.6-0.9s0.6-0.5,0.9-0.6
		c0.3-0.2,0.7-0.2,1.1-0.2c0.4,0,0.8,0.1,1.1,0.2c0.4,0.2,0.7,0.4,0.9,0.6c0.3,0.3,0.5,0.6,0.6,0.9
		C595.8,439.3,595.9,439.7,595.9,440.1z"/>
	<path d="M619,452.2c0,1.2-0.2,2.4-0.6,3.3c-0.4,1-1,1.8-1.7,2.4s-1.6,1.2-2.5,1.5c-0.9,0.3-1.9,0.5-2.9,0.5c-1,0-2-0.2-2.9-0.5
		c-0.9-0.3-1.8-0.8-2.5-1.5c-0.7-0.7-1.3-1.5-1.7-2.4c-0.4-1-0.6-2.1-0.6-3.3v-0.4c0-1.2,0.2-2.3,0.6-3.3c0.4-1,1-1.8,1.7-2.4
		c0.7-0.7,1.6-1.2,2.5-1.5c0.9-0.3,1.9-0.5,2.9-0.5c1,0,2,0.2,2.9,0.5c0.9,0.3,1.8,0.8,2.5,1.5c0.7,0.7,1.3,1.5,1.7,2.4
		c0.4,1,0.6,2,0.6,3.3V452.2z M611.2,456.3c0.5,0,1.1-0.1,1.5-0.3c0.5-0.2,0.9-0.4,1.3-0.8c0.4-0.3,0.6-0.8,0.9-1.3
		c0.2-0.5,0.3-1.1,0.3-1.7v-0.6c0-0.6-0.1-1.2-0.3-1.7c-0.2-0.5-0.5-0.9-0.9-1.3c-0.4-0.3-0.8-0.6-1.3-0.8c-0.5-0.2-1-0.3-1.5-0.3
		s-1.1,0.1-1.5,0.3c-0.5,0.2-0.9,0.4-1.3,0.8c-0.4,0.3-0.6,0.8-0.9,1.3s-0.3,1.1-0.3,1.7v0.6c0,0.6,0.1,1.2,0.3,1.7s0.5,0.9,0.9,1.3
		c0.4,0.3,0.8,0.6,1.3,0.8C610.1,456.2,610.6,456.3,611.2,456.3z"/>
</g>
</svg>
