<?xml version="1.0" encoding="utf-8"?>
<!-- Generator: Adobe Illustrator 22.1.0, SVG Export Plug-In . SVG Version: 6.00 Build 0)  -->
<svg version="1.1" id="Layer_1" xmlns="http://www.w3.org/2000/svg" xmlns:xlink="http://www.w3.org/1999/xlink" x="0px" y="0px"
	 viewBox="0 0 1000 700" style="enable-background:new 0 0 1000 700;" xml:space="preserve">
<style type="text/css">
	.st0{fill:#A6FFEA;}
</style>
<g>
	<g>
		<path d="M578.5,422.3h-48.1c-4,0-7.7-1.8-10.2-4.8c-2.5-3.1-3.5-7.1-2.7-11l21.6-104.2c1.5-7.1,8.5-11.7,15.6-10.2
			c7.1,1.5,11.7,8.5,10.2,15.6l-18.3,88.4h31.9c7.3,0,13.2,5.9,13.2,13.2C591.8,416.4,585.8,422.3,578.5,422.3z"/>
		<path class="st0" d="M575.4,408.6h-48.1c-1,0-2.1-0.5-2.7-1.3c-0.6-0.8-0.9-1.9-0.7-2.9l21.6-104.2c0.4-1.9,2.2-3.1,4.1-2.7
			c1.9,0.4,3.1,2.2,2.7,4.1l-20.8,100.1h43.9c1.9,0,3.5,1.6,3.5,3.5C578.9,407.1,577.3,408.6,575.4,408.6z"/>
	</g>
	<g>
		<path d="M496,422.3h-39c-4,0-7.7-1.8-10.2-4.9s-3.5-7.1-2.6-11l22-104.2c1.3-6.1,6.7-10.5,12.9-10.5h40.7c4,0,7.7,1.8,10.2,4.8
			c2.5,3.1,3.5,7.1,2.7,11L518.5,377c-1.3,6.1-6.7,10.5-12.9,10.5h-30.5l-1.8,8.4H496c7.3,0,13.2,5.9,13.2,13.2
			C509.2,416.4,503.3,422.3,496,422.3z M480.7,361.2h14.1l8.9-43.1h-13.8L480.7,361.2z"/>
		<g>
			<path class="st0" d="M492.9,408.6h-39c-1,0-2.1-0.5-2.7-1.3c-0.6-0.8-0.9-1.9-0.7-2.9l22-104.2c0.3-1.6,1.8-2.7,3.4-2.7h40.7
				c1,0,2,0.5,2.7,1.3c0.6,0.8,0.9,1.9,0.7,2.9l-14.2,69.5c-0.3,1.6-1.8,2.8-3.4,2.8h-30.3c-1.9,0-3.5-1.6-3.5-3.5
				c0-1.9,1.6-3.5,3.5-3.5h27.5l12.8-62.6h-33.6l-20.6,97.3h34.7c1.9,0,3.5,1.6,3.5,3.5C496.3,407.1,494.8,408.6,492.9,408.6z"/>
		</g>
	</g>
	<g>
		<g>
			<path d="M649.7,422.3H609c-4,0-7.7-1.8-10.2-4.8c-2.5-3.1-3.5-7.1-2.7-11l14.2-69.5c1.3-6.1,6.7-10.5,12.9-10.5h30.4l1.8-8.4
				h-22.7c-7.3,0-13.2-5.9-13.2-13.2s5.9-13.2,13.2-13.2h39c4,0,7.7,1.8,10.2,4.9c2.5,3.1,3.5,7.1,2.6,11l-22,104.2
				C661.3,417.9,655.9,422.3,649.7,422.3z M625.1,395.9h13.8l9.1-43.1h-14.1L625.1,395.9z"/>
		</g>
		<g>
			<path class="st0" d="M646.5,408.6h-40.7c-1,0-2-0.5-2.7-1.3c-0.6-0.8-0.9-1.9-0.7-2.9l14.2-69.5c0.3-1.6,1.8-2.8,3.4-2.8h29.7
				c1.9,0,3.5,1.6,3.5,3.5s-1.6,3.5-3.5,3.5h-26.8L610,401.7h33.6l20.6-97.3h-34.7c-1.9,0-3.5-1.6-3.5-3.5s1.6-3.5,3.5-3.5h39
				c1,0,2.1,0.5,2.7,1.3c0.6,0.8,0.9,1.9,0.7,2.9l-22,104.2C649.6,407.5,648.1,408.6,646.5,408.6z"/>
		</g>
	</g>
	<g>
		<g>
			<path d="M425.2,422.3h-40.7c-4,0-7.7-1.8-10.2-4.8c-2.5-3.1-3.5-7.1-2.7-11l21.7-104.2c1.5-7.1,8.4-11.7,15.6-10.2
				c7.1,1.5,11.7,8.5,10.2,15.6l-3.9,18.9h24.4c4,0,7.7,1.8,10.2,4.8c2.5,3.1,3.5,7.1,2.7,11l-14.3,69.5
				C436.9,417.9,431.5,422.3,425.2,422.3z M400.7,395.9h13.8l8.9-43.1h-13.8L400.7,395.9z"/>
			<path class="st0" d="M422.1,408.6h-40.7c-1,0-2.1-0.5-2.7-1.3c-0.6-0.8-0.9-1.9-0.7-2.9l21.6-104.3c0.4-1.9,2.2-3.1,4.1-2.7
				c1.9,0.4,3.1,2.2,2.7,4.1l-20.8,100.1h33.6l12.9-62.6h-26.2c-1.9,0-3.5-1.6-3.5-3.5s1.6-3.5,3.5-3.5h30.5c1,0,2,0.5,2.7,1.3
				c0.6,0.8,0.9,1.9,0.7,2.9l-14.3,69.5C425.2,407.4,423.7,408.6,422.1,408.6z"/>
		</g>
	</g>
</g>
</svg>
