<?xml version="1.0" encoding="UTF-8"?>
<svg id="made_with_Bela" enable-background="new 0 0 406 148" version="1.1" viewBox="0 0 406 148" xml:space="preserve" xmlns="http://www.w3.org/2000/svg"><style id="style" type="text/css">
	.st0{fill:none;}
	.st1{fill:none;stroke:#000000;stroke-miterlimit:10;}
	.st2{fill:#FFFFFF;}
</style><g id="Bela"><path id="b" d="m227 58.8c-1.5-1.8-3.7-2.8-6-2.8h-14.2l2.3-11c0.9-4.1-1.8-8.2-5.9-9.1s-8.2 1.8-9.1 5.9l-12.6 60.5c-0.9 4.1 1.8 8.2 5.9 9 0.5 0.1 1 0.2 1.6 0.2h23.6c3.6 0 6.8-2.6 7.5-6.1l8.3-40.4c0.6-2.1 0-4.4-1.4-6.2zm-5.8 3-8.3 40.4c-0.2 1-1 1.6-2 1.6h-23.7c-1.1 0-2-0.8-2-2v-0.5l12.6-60.5c0.2-1.1 1.3-1.8 2.4-1.6s1.8 1.3 1.6 2.4l-12 58.1h19.5l7.5-36.3h-15.2c-1.1 0-2-0.9-2-2s0.9-2 2-2h17.7c0.6 0 1.2 0.3 1.6 0.7 0.3 0.5 0.4 1.1 0.3 1.7zm-22.7 34.5 5.2-25h8l-5.2 25h-8z"/><path id="e" d="m273.6 38.6c-1.5-1.8-3.6-2.8-5.9-2.8h-23.7c-3.6 0-6.7 2.5-7.5 6.1l-12.8 60.5c-0.9 4.1 1.8 8.2 5.9 9.1 0.5 0.1 1 0.2 1.6 0.2h22.6c4.2 0.2 7.8-3.2 7.9-7.4 0.2-4.2-3.2-7.8-7.4-7.9h-0.6-13.2l1-4.9h17.7c3.6 0 6.8-2.6 7.5-6.1l8.3-40.3c0.6-2.4 0-4.7-1.4-6.5zm-5.8 3-8.3 40.4c-0.2 1-1 1.6-2 1.6h-17.5c-1.1 0-2-0.9-2-2s0.9-2 2-2h15.9l7.5-36.3h-19.6l-12 56.5h20.2c1.1 0 2 0.9 2 2s-0.9 2-2 2h-22.6c-1.1 0-2-0.8-2-2v-0.5l12.8-60.5c0.2-0.9 1-1.6 2-1.6h23.6c1.1 0 2 0.9 2 2 0.1 0.1 0.1 0.2 0 0.4zm-22.9 34.6 5.3-25h8l-5.1 25h-8.2z"/><path id="l" d="m301.8 96.3h-18.5l10.6-51.3c0.9-4.1-1.8-8.2-5.9-9.1s-8.2 1.8-9.1 5.9l-12.6 60.5c-0.9 4.1 1.8 8.2 5.9 9 0.5 0.1 1 0.2 1.6 0.2h28c4.2 0.2 7.8-3.2 7.9-7.4 0.2-4.2-3.2-7.8-7.4-7.9-0.2 0.1-0.4 0.1-0.5 0.1zm-1.9 7.4h-27.9c-0.6 0-1.2-0.3-1.6-0.8s-0.5-1.1-0.4-1.7l12.6-60.5c0.2-1.1 1.3-1.8 2.4-1.6s1.8 1.3 1.6 2.4l-12.1 58.1h25.5c1.1 0 2 0.9 2 2s-1 2.1-2.1 2.1z"/><path id="a" d="m361.8 38.6c-1.5-1.8-3.6-2.8-6-2.8h-22.6c-4.2-0.2-7.8 3.2-7.9 7.4-0.2 4.2 3.2 7.8 7.4 7.9h0.6 13.2l-1 4.9h-17.7c-3.6 0-6.8 2.6-7.5 6.1l-8.3 40.4c-0.8 4.1 1.8 8.2 6 9 0.5 0.1 1 0.2 1.5 0.2h23.5c3.6 0 6.7-2.5 7.5-6.1l12.8-60.6c0.5-2.2-0.1-4.6-1.5-6.4zm-5.8 3-12.8 60.5c-0.2 0.9-1 1.6-2 1.6h-23.6c-0.6 0-1.2-0.3-1.6-0.8s-0.5-1.1-0.4-1.7l8.3-40.4c0.2-1 1-1.6 2-1.6h17.2c1.1 0 2 0.9 2 2s-0.9 2-2 2h-15.6l-7.5 36.3h19.5l12-56.5h-20.2c-1.1 0-2-0.9-2-2s0.9-2 2-2h22.7c1.1 0 2 0.8 2 2 0.1 0.3 0 0.4 0 0.6zm-13.9 29.7-5.3 25h-8l5.1-25h8.2z"/></g><path d="m18.1 22.699v102h134.5v-0.29883l19.4-101.7h-153.9zm100.8 19h5.2988v27.9h-5.2988v-3.5c-1.3 2.4-3.8996 3.9008-6.5996 3.8008-2.7 0.1-5.2-1-7-3-1.9-2.1-2.9008-4.9012-2.8008-7.7012-0.1-2.8 0.90078-5.5992 2.8008-7.6992 1.8-2 4.3996-3.1 7.0996-3 2.6-0.1 5.1 1.2 6.5 3.5v-10.301zm19.799 6.7012c2.8-0.1 5.5 0.89883 7.5 2.7988 2 2 3.0004 4.8016 2.9004 7.6016 0 0.7 3.9e-4 1.3996-0.09961 2.0996h-15.199c0.1 1.3 0.6 2.3988 1.5 3.2988 1 0.8 2.1984 1.2012 3.3984 1.2012 1.7 0 3.3016-0.80078 4.1016-2.3008h5.6992c-0.6 2-1.8 3.7004-3.5 4.9004-1.9 1.3-4.1008 2.0004-6.3008 1.9004-2.8 0.1-5.4984-1-7.3984-3-2-2.1-3.0004-4.9008-2.9004-7.8008-0.1-2.9 0.90039-5.6988 2.9004-7.7988 1.9-1.9 4.5984-3.0004 7.3984-2.9004zm-89.285 0.080078c0.16148 9.03e-4 0.32383 0.007031 0.48633 0.019531 1.5 0 2.8992 0.39961 4.1992 1.0996s2.3004 1.7996 2.9004 3.0996c0.7-1.3 1.7-2.3996 3-3.0996s2.8008-1.0996 4.3008-1.0996c2.2-0.1 4.4 0.70078 6 2.3008 1.6 1.7 2.3988 4.1 2.2988 6.5v12.299h-5.2988v-11.6c0.1-1.3-0.30117-2.6992-1.2012-3.6992-1.9-1.7-4.8988-1.7-6.7988 0-0.9 1-1.4008 2.2992-1.3008 3.6992v11.6h-5.3008v-11.6c0.1-1.3-0.29922-2.6992-1.1992-3.6992-0.9-0.9-2.1004-1.4008-3.4004-1.3008-1.3 0-2.5004 0.40078-3.4004 1.3008-0.9 1-1.3988 2.2992-1.2988 3.6992v11.6h-5.3008v-20.799h5.3008v3.0996c1.3125-2.1562 3.5916-3.4335 6.0137-3.4199zm36.48 0.015625c0.1678-0.003052 0.33711-0.002344 0.50586 0.003906 2.7-0.1 5.1996 1.2 6.5996 3.5v-3.3008h5.3008v20.9h-5.4004v-3.5c-1.3 2.4-3.8996 3.9008-6.5996 3.8008-2.7 0.1-5.2-1-7-3-1.9-2.1-2.9008-4.9012-2.8008-7.7012-0.1-2.8 0.90078-5.5992 2.8008-7.6992 1.6875-1.875 4.0768-2.9581 6.5938-3.0039zm1.5059 4.4043c-1.5 0-2.9004 0.59961-3.9004 1.5996-1.1 1.2-1.6996 2.8-1.5996 4.5 0 1.7 0.59922 3.3 1.6992 4.5 1 1.1 2.4004 1.6992 3.9004 1.6992s2.9004-0.49961 3.9004-1.5996c1.1-1.2 1.7-2.7996 1.5-4.5996 0.1-1.7-0.49961-3.3-1.5996-4.5-1-1-2.4004-1.5996-3.9004-1.5996zm25.9 0c-1.5 0-2.9004 0.59922-3.9004 1.6992-1.1 1.2-1.6996 2.8-1.5996 4.5-0.1 1.7 0.49922 3.3 1.6992 4.5 0.9 1.1 2.3008 1.7012 3.8008 1.7012s2.8984-0.50156 3.8984-1.6016c1.2-1.3 1.8012-2.8992 1.7012-4.6992 0.1-1.7-0.60117-3.3-1.7012-4.5-1-1-2.3984-1.5996-3.8984-1.5996zm25.398 0c-1.2-0.1-2.3988 0.39922-3.2988 1.1992-0.9 0.9-1.4996 2.0008-1.5996 3.3008h9.7988c0-1.3-0.6-2.5008-1.5-3.3008s-2.1004-1.1992-3.4004-1.1992zm-66.1 19.6c0.9 0 1.7008 0.30039 2.3008 0.90039s0.90039 1.3992 0.90039 2.1992c0 1.8-1.4012 3.3008-3.2012 3.3008-0.9 0.1-1.6988-0.30039-2.2988-0.90039s-0.90039-1.3992-0.90039-2.1992c0-1.8 1.3992-3.3008 3.1992-3.3008zm23.1 1.5h5.3008v10.1c1.3-2.3 3.8004-3.6004 6.4004-3.4004 2.2-0.1 4.4004 0.80039 5.9004 2.4004 1.6 1.8 2.3988 4.1 2.2988 6.5v12.201h-5.2988v-11.5c0.1-1.3-0.30117-2.7012-1.2012-3.7012-0.9-0.9-2.1004-1.3988-3.4004-1.2988-1.3-0.1-2.4984 0.39883-3.3984 1.2988-0.9 1-1.4008 2.3012-1.3008 3.7012v11.5h-5.3008v-27.801zm-14.199 1.9004h5.3008v5.0996h4.6992v4.3008h-4.6992v10.299c0 0.5 0.1 1.0004 0.5 1.4004 0.5 0.3 1.0992 0.5 1.6992 0.5h2.4004v4.4004h-3.3008c-1.7 0.1-3.5004-0.4-4.9004-1.5-1.1-1-1.6992-2.6004-1.6992-4.9004v-10.199h-2.1992v-4.3008h2.1992v-5.0996zm-45.9 5.0996h5.4004l3.8008 15.9 3.8984-15.9h5.5l3.8008 15.801 3.8008-15.801h5.0996l-6.4004 20.9h-5.5996l-3.5996-14-3.6016 14h-5.6992l-6.4004-20.9zm34.4 0h5.3008v20.801h-5.3008v-20.801z"/><polyline class="st1" points="152.6 124.4 172 22.7 18.1 22.7 18.1 124.7 152.6 124.7 374.3 124.7 392.8 22.8"/><polyline class="st1" points="392.8 22.7 392.8 22.7 172 22.7"/></svg>
