<?xml version="1.0" encoding="utf-8"?>
<!-- Generator: Adobe Illustrator 22.1.0, SVG Export Plug-In . SVG Version: 6.00 Build 0)  -->
<svg version="1.1" id="Layer_1" xmlns="http://www.w3.org/2000/svg" xmlns:xlink="http://www.w3.org/1999/xlink" x="0px" y="0px"
	 viewBox="0 0 406 148" style="enable-background:new 0 0 406 148;" xml:space="preserve">
<style type="text/css">
	.st0{fill:none;}
	.st1{fill:none;stroke:#000000;stroke-miterlimit:10;}
	.st2{fill:#FFFFFF;}
</style>
<title>Artboard 1</title>
<polygon class="st0" points="203.7,71.3 198.5,96.3 206.5,96.3 211.6,71.3 "/>
<polygon class="st0" points="261.2,51.1 255.9,76.2 264.1,76.2 269.3,51.1 "/>
<polygon class="st0" points="336.8,96.3 342.1,71.3 333.9,71.3 328.8,96.3 "/>
<path d="M301.8,96.3h-18.5L293.9,45c0.9-4.1-1.8-8.2-5.9-9.1c-4.1-0.9-8.2,1.8-9.1,5.9l0,0l-12.6,60.5c-0.9,4.1,1.8,8.2,5.9,9
	c0.5,0.1,1,0.2,1.6,0.2h28c4.2,0.2,7.8-3.2,7.9-7.4c0.2-4.2-3.2-7.8-7.4-7.9C302.1,96.3,301.9,96.3,301.8,96.3L301.8,96.3z
	 M299.9,103.7H272c-0.6,0-1.2-0.3-1.6-0.8c-0.4-0.5-0.5-1.1-0.4-1.7l12.6-60.5c0.2-1.1,1.3-1.8,2.4-1.6s1.8,1.3,1.6,2.4l-12.1,58.1
	h25.5c1.1,0,2,0.9,2,2S301,103.7,299.9,103.7L299.9,103.7z"/>
<path d="M273.6,38.6c-1.5-1.8-3.6-2.8-5.9-2.8H244c-3.6,0-6.7,2.5-7.5,6.1l-12.8,60.5c-0.9,4.1,1.8,8.2,5.9,9.1
	c0.5,0.1,1,0.2,1.6,0.2h22.6c4.2,0.2,7.8-3.2,7.9-7.4c0.2-4.2-3.2-7.8-7.4-7.9c-0.2,0-0.4,0-0.6,0h-13.2l1-4.9h17.7
	c3.6,0,6.8-2.6,7.5-6.1l8.3-40.3C275.6,42.7,275,40.4,273.6,38.6z M267.8,41.6L259.5,82c-0.2,1-1,1.6-2,1.6H240c-1.1,0-2-0.9-2-2
	s0.9-2,2-2h15.9l7.5-36.3h-19.6l-12,56.5H252c1.1,0,2,0.9,2,2s-0.9,2-2,2h-22.6c-1.1,0-2-0.8-2-2c0-0.2,0-0.3,0-0.5l12.8-60.5
	c0.2-0.9,1-1.6,2-1.6h23.6c1.1,0,2,0.9,2,2C267.9,41.3,267.9,41.4,267.8,41.6L267.8,41.6z M244.9,76.2l5.3-25h8l-5.1,25H244.9z"/>
<path d="M361.8,38.6c-1.5-1.8-3.6-2.8-6-2.8h-22.6c-4.2-0.2-7.8,3.2-7.9,7.4c-0.2,4.2,3.2,7.8,7.4,7.9c0.2,0,0.4,0,0.6,0h13.2
	l-1,4.9h-17.7c-3.6,0-6.8,2.6-7.5,6.1l-8.3,40.4c-0.8,4.1,1.8,8.2,6,9c0.5,0.1,1,0.2,1.5,0.2H343c3.6,0,6.7-2.5,7.5-6.1L363.3,45
	C363.8,42.8,363.2,40.4,361.8,38.6z M356,41.6l-12.8,60.5c-0.2,0.9-1,1.6-2,1.6h-23.6c-0.6,0-1.2-0.3-1.6-0.8
	c-0.4-0.5-0.5-1.1-0.4-1.7l8.3-40.4c0.2-1,1-1.6,2-1.6h17.2c1.1,0,2,0.9,2,2s-0.9,2-2,2h-15.6l-7.5,36.3h19.5l12-56.5h-20.2
	c-1.1,0-2-0.9-2-2s0.9-2,2-2H354c1.1,0,2,0.8,2,2C356.1,41.3,356,41.4,356,41.6L356,41.6z M342.1,71.3l-5.3,25h-8l5.1-25H342.1z"/>
<path d="M227,58.8c-1.5-1.8-3.7-2.8-6-2.8h-14.2l2.3-11c0.9-4.1-1.8-8.2-5.9-9.1c-4.1-0.9-8.2,1.8-9.1,5.9l0,0l-12.6,60.5
	c-0.9,4.1,1.8,8.2,5.9,9c0.5,0.1,1,0.2,1.6,0.2h23.6c3.6,0,6.8-2.6,7.5-6.1l8.3-40.4C229,62.9,228.4,60.6,227,58.8z M221.2,61.8
	l-8.3,40.4c-0.2,1-1,1.6-2,1.6h-23.7c-1.1,0-2-0.8-2-2c0-0.2,0-0.3,0-0.5l12.6-60.5c0.2-1.1,1.3-1.8,2.4-1.6
	c1.1,0.2,1.8,1.3,1.6,2.4l-12,58.1h19.5l7.5-36.3h-15.2c-1.1,0-2-0.9-2-2s0.9-2,2-2h17.7c0.6,0,1.2,0.3,1.6,0.7
	C221.2,60.6,221.3,61.2,221.2,61.8L221.2,61.8z M198.5,96.3l5.2-25h8l-5.2,25H198.5z"/>
<path class="st0" d="M219.2,59.3h-17.7c-1.1,0-2,0.9-2,2s0.9,2,2,2h15.2l-7.5,36.3h-19.5l12.1-58.1c0.2-1.1-0.5-2.2-1.6-2.4
	c-1.1-0.2-2.2,0.5-2.4,1.6l-12.6,60.5c-0.2,1.1,0.4,2.1,1.5,2.4c0.2,0,0.3,0.1,0.5,0h23.7c1,0,1.8-0.7,2-1.6l8.3-40.4
	c0.1-0.6,0-1.2-0.4-1.7C220.4,59.6,219.8,59.3,219.2,59.3z"/>
<g id="_Group_">
	<polygon points="172,22.7 152.6,124.4 152.6,124.7 18.1,124.7 18.1,22.7 	"/>
	<polyline class="st1" points="152.6,124.4 172,22.7 18.1,22.7 18.1,124.7 152.6,124.7 374.3,124.7 392.8,22.8 	"/>
	<polyline class="st1" points="392.8,22.7 392.8,22.7 172,22.7 	"/>
</g>
<path class="st2" d="M72.6,69.6V57.3c0.1-2.4-0.7-4.8-2.3-6.5c-1.6-1.6-3.8-2.4-6-2.3c-1.5,0-3,0.4-4.3,1.1c-1.3,0.7-2.3,1.8-3,3.1
	c-0.6-1.3-1.6-2.4-2.9-3.1c-1.3-0.7-2.7-1.1-4.2-1.1c-2.6-0.2-5.1,1.1-6.5,3.4v-3.1h-5.3v20.8h5.3V58c-0.1-1.4,0.4-2.7,1.3-3.7
	c0.9-0.9,2.1-1.3,3.4-1.3c1.3-0.1,2.5,0.4,3.4,1.3c0.9,1,1.3,2.4,1.2,3.7v11.6h5.3V58c-0.1-1.4,0.4-2.7,1.3-3.7
	c1.9-1.7,4.9-1.7,6.8,0c0.9,1,1.3,2.4,1.2,3.7v11.6H72.6z"/>
<path class="st2" d="M98.3,69.6V48.7H93V52c-1.4-2.3-3.9-3.6-6.6-3.5c-2.7-0.1-5.3,1-7.1,3c-1.9,2.1-2.9,4.9-2.8,7.7
	c-0.1,2.8,0.9,5.6,2.8,7.7c1.8,2,4.3,3.1,7,3c2.7,0.1,5.3-1.4,6.6-3.8v3.5H98.3z M91.4,63.6c-1,1.1-2.4,1.6-3.9,1.6
	c-1.5,0-2.9-0.6-3.9-1.7c-1.1-1.2-1.7-2.8-1.7-4.5c-0.1-1.7,0.5-3.3,1.6-4.5c1-1,2.4-1.6,3.9-1.6c1.5,0,2.9,0.6,3.9,1.6
	c1.1,1.2,1.7,2.8,1.6,4.5C93.1,60.8,92.5,62.4,91.4,63.6z"/>
<path class="st2" d="M118.9,52c-1.4-2.3-3.9-3.6-6.5-3.5c-2.7-0.1-5.3,1-7.1,3c-1.9,2.1-2.9,4.9-2.8,7.7c-0.1,2.8,0.9,5.6,2.8,7.7
	c1.8,2,4.3,3.1,7,3c2.7,0.1,5.3-1.4,6.6-3.8v3.5h5.3V41.7h-5.3L118.9,52z M117.2,63.7c-1,1.1-2.4,1.6-3.9,1.6
	c-1.5,0-2.9-0.6-3.8-1.7c-1.2-1.2-1.8-2.8-1.7-4.5c-0.1-1.7,0.5-3.3,1.6-4.5c1-1.1,2.4-1.7,3.9-1.7c1.5,0,2.9,0.6,3.9,1.6
	c1.1,1.2,1.8,2.8,1.7,4.5C119,60.8,118.4,62.4,117.2,63.7L117.2,63.7z"/>
<path class="st2" d="M149.1,58.8c0.1-2.8-0.9-5.6-2.9-7.6c-2-1.9-4.7-2.9-7.5-2.8c-2.8-0.1-5.5,1-7.4,2.9c-2,2.1-3,4.9-2.9,7.8
	c-0.1,2.9,0.9,5.7,2.9,7.8c1.9,2,4.6,3.1,7.4,3c2.2,0.1,4.4-0.6,6.3-1.9c1.7-1.2,2.9-2.9,3.5-4.9h-5.7c-0.8,1.5-2.4,2.3-4.1,2.3
	c-1.2,0-2.4-0.4-3.4-1.2c-0.9-0.9-1.4-2-1.5-3.3H149C149.1,60.2,149.1,59.5,149.1,58.8z M133.8,57.4c0.1-1.3,0.7-2.4,1.6-3.3
	c0.9-0.8,2.1-1.3,3.3-1.2c1.3,0,2.5,0.4,3.4,1.2c0.9,0.8,1.5,2,1.5,3.3H133.8z"/>
<polygon class="st2" points="58,96.8 54.2,81 48.7,81 44.8,96.9 41,81 35.6,81 42,101.9 47.7,101.9 51.3,87.9 54.9,101.9 
	60.5,101.9 66.9,81 61.8,81 "/>
<rect x="70" y="81" class="st2" width="5.3" height="20.8"/>
<path class="st2" d="M72.6,72.5c-1.8,0-3.2,1.5-3.2,3.3c0,0.8,0.3,1.6,0.9,2.2c0.6,0.6,1.4,1,2.3,0.9c1.8,0,3.2-1.5,3.2-3.3
	c0-0.8-0.3-1.6-0.9-2.2C74.3,72.8,73.5,72.5,72.6,72.5z"/>
<path class="st2" d="M87.3,97c-0.4-0.4-0.5-0.9-0.5-1.4V85.3h4.7V81h-4.7v-5.1h-5.3V81h-2.2v4.3h2.2v10.2c0,2.3,0.6,3.9,1.7,4.9
	c1.4,1.1,3.2,1.6,4.9,1.5h3.3v-4.4H89C88.4,97.5,87.8,97.3,87.3,97z"/>
<path class="st2" d="M107.4,80.7c-2.6-0.2-5.1,1.1-6.4,3.4V74h-5.3v27.8h5.3V90.3c-0.1-1.4,0.4-2.7,1.3-3.7c0.9-0.9,2.1-1.4,3.4-1.3
	c1.3-0.1,2.5,0.4,3.4,1.3c0.9,1,1.3,2.4,1.2,3.7v11.5h5.3V89.6c0.1-2.4-0.7-4.7-2.3-6.5C111.8,81.5,109.6,80.6,107.4,80.7z"/>
</svg>
