<?xml version="1.0" encoding="utf-8"?>
<!-- Generator: Adobe Illustrator 22.1.0, SVG Export Plug-In . SVG Version: 6.00 Build 0)  -->
<svg version="1.1" id="Layer_1" xmlns="http://www.w3.org/2000/svg" xmlns:xlink="http://www.w3.org/1999/xlink" x="0px" y="0px"
	 viewBox="0 0 1024 576" style="enable-background:new 0 0 1024 576;" xml:space="preserve">
<style type="text/css">
	.st0{fill:#110F0F;}
</style>
<g>
	<g>
		<path class="st0" d="M328.7,277.7c0,3.1-1.4,4.8-4.8,4.8c-3.5,0-4.8-1.7-4.8-4.8v-70.6h32.2c4.5,0,7.7,0.7,11.2,4
			c4.2,3.9,4.6,7.5,4.6,12.7V237c0,4.9-0.4,8.4-4,12.4c-3.8,4.3-7.8,4.7-13,4.7h-21.2V277.7z M328.7,244.4h21.5c5.7,0,7-1.5,7-7
			v-13.6c0-5.5-1.3-7-7-7h-21.5V244.4z"/>
		<path class="st0" d="M431.9,272.9c2.5,0,4.8,1.4,4.8,4.8c0,3.5-2.3,4.8-4.8,4.8h-43.1v-75.5h43.1c2.5,0,4.8,1.4,4.8,4.8
			c0,3.5-2.3,4.8-4.8,4.8h-33.4V240h14.3c2.5,0,4.8,1.4,4.8,4.8c0,3.5-2.3,4.8-4.8,4.8h-14.3v23.2H431.9z"/>
		<path class="st0" d="M468.3,277.7c0,3.1-1.4,4.8-4.8,4.8c-3.5,0-4.8-1.7-4.8-4.8v-70.6h32.2c4.5,0,7.7,0.7,11.2,4
			c4.2,3.9,4.6,7.5,4.6,12.7V237c0,4.9-0.4,8.4-4,12.4c-3.8,4.3-7.8,4.7-13,4.7h-21.2V277.7z M468.3,244.4h21.5c5.7,0,7-1.5,7-7
			v-13.6c0-5.5-1.3-7-7-7h-21.5V244.4z"/>
		<path class="st0" d="M538.2,277.7c0,3.1-1.4,4.8-4.8,4.8c-3.5,0-4.8-1.7-4.8-4.8v-70.6h32.2c4.5,0,7.7,0.7,11.2,4
			c4.2,3.9,4.6,7.5,4.6,12.7V237c0,4.9-0.4,8.4-4,12.4c-3.8,4.3-7.8,4.7-13,4.7h-21.2V277.7z M538.2,244.4h21.5c5.7,0,7-1.5,7-7
			v-13.6c0-5.5-1.3-7-7-7h-21.5V244.4z"/>
		<path class="st0" d="M641.3,272.9c2.5,0,4.8,1.4,4.8,4.8c0,3.5-2.3,4.8-4.8,4.8h-43.1v-75.5h43.1c2.5,0,4.8,1.4,4.8,4.8
			c0,3.5-2.3,4.8-4.8,4.8H608V240h14.3c2.5,0,4.8,1.4,4.8,4.8c0,3.5-2.3,4.8-4.8,4.8H608v23.2H641.3z"/>
		<path class="st0" d="M677.8,277.7c0,3.1-1.4,4.8-4.8,4.8c-3.5,0-4.8-1.7-4.8-4.8v-70.6h32.6c7.7,0,15.3,5.4,15.3,14.1v6.7
			c0,9.1-7.6,13.8-15.3,13.8h-8.9l21.8,31.2c1.1,1.5,2.4,3.3,2.4,5.1c0,2.7-2.2,4.6-4.9,4.6c-1.9,0-3.2-1.2-4.3-2.7L680,241.7h-2.2
			V277.7z M677.8,232h21.5c2.7,0,7-0.2,7-4.1v-6.7c0-3.9-4-4.4-6.9-4.4h-21.6V232z"/>
	</g>
</g>
</svg>
