<?xml version="1.0" encoding="UTF-8"?>
<svg width="418.3" height="193.4" version="1.1" viewBox="0 0 418.3 193.4" xml:space="preserve" xmlns="http://www.w3.org/2000/svg"><style type="text/css">.st0{fill:#28A9D0;}</style><g id="SALT" transform="translate(-293.7,-176.7)"><path class="st0" d="m398.7 296.5c2.4 3.1 4.2 5.9 4.2 10 0 9-6.8 13.6-15.1 13.6h-26.4c-4.6 0-8.5-0.8-12.1-3.8-3.2-2.6-5.6-7-5.6-11.2 0-3.8 2.2-7.2 6.4-7.2 3.5 0 5.6 2.9 5.6 6.1 0 3.6 1.9 4.1 5.3 4.1h26c1 0 4 0.4 4-1.4 0-1-1.7-2.8-2.2-3.5l-41.1-52.9c-2.5-3.2-4-5.6-4-9.8 0-4.8 2.3-8.9 6.4-11.5 3.4-2.2 6.1-2.2 10-2.2h25.4c4.6 0 8.4 1 11.9 4 3.1 2.8 5.6 7.2 5.6 11.4 0 3.8-1.9 7-6.2 7-3.6 0-5.8-2.3-5.8-5.6 0-4.1-2-4.7-5.8-4.7h-25.4c-1.3 0-4.1-0.4-4.1 1.7 0 1.1 1.3 2.5 1.8 3.2z"/><path class="st0" d="m453.5 232.8c1-3.2 2.3-6.1 6.1-6.1 4 0 5.4 3 6.2 6.1l23.2 81.2c0.8 2.9-2.4 6-5.8 6-3.7 0-5.6-3.1-6.5-6l-4.4-14.4h-25.6l-4.6 14.4c-0.8 2.9-2.8 6-6.5 6-3.4 0-6.6-3.1-5.8-6zm6.2 22.3h-0.2l-9.4 32.5h18.9z"/><path class="st0" d="m569.6 308c3.1 0 6 1.7 6 6s-2.9 6-6 6h-53.3v-87.3c0-3.8 1.7-6 6-6s6 2.2 6 6v75.3z"/><path class="st0" d="m614.7 238.7v4.3c0 3.8-1.7 6-6 6s-6-2.2-6-6v-16.3h59.3v16.3c0 3.8-1.7 6-6 6s-6-2.2-6-6v-4.3h-11.6v75.3c0 3.8-1.7 6-6 6s-6-2.2-6-6v-75.3z"/></g></svg>
