<?xml version="1.0" encoding="utf-8"?>
<!-- Generator: Adobe Illustrator 22.1.0, SVG Export Plug-In . SVG Version: 6.00 Build 0)  -->
<svg version="1.1" id="Layer_1" xmlns="http://www.w3.org/2000/svg" xmlns:xlink="http://www.w3.org/1999/xlink" x="0px" y="0px"
	 viewBox="0 0 1024 576" style="enable-background:new 0 0 1024 576;" xml:space="preserve">
<style type="text/css">
	.st0{fill:#28A9D0;}
</style>
<g>
	<path class="st0" d="M398.7,296.5c2.4,3.1,4.2,5.9,4.2,10c0,9-6.8,13.6-15.1,13.6h-26.4c-4.6,0-8.5-0.8-12.1-3.8
		c-3.2-2.6-5.6-7-5.6-11.2c0-3.8,2.2-7.2,6.4-7.2c3.5,0,5.6,2.9,5.6,6.1c0,3.6,1.9,4.1,5.3,4.1h26c1,0,4,0.4,4-1.4
		c0-1-1.7-2.8-2.2-3.5l-41.1-52.9c-2.5-3.2-4-5.6-4-9.8c0-4.8,2.3-8.9,6.4-11.5c3.4-2.2,6.1-2.2,10-2.2h25.4c4.6,0,8.4,1,11.9,4
		c3.1,2.8,5.6,7.2,5.6,11.4c0,3.8-1.9,7-6.2,7c-3.6,0-5.8-2.3-5.8-5.6c0-4.1-2-4.7-5.8-4.7h-25.4c-1.3,0-4.1-0.4-4.1,1.7
		c0,1.1,1.3,2.5,1.8,3.2L398.7,296.5z"/>
	<path class="st0" d="M453.5,232.8c1-3.2,2.3-6.1,6.1-6.1c4,0,5.4,3,6.2,6.1L489,314c0.8,2.9-2.4,6-5.8,6c-3.7,0-5.6-3.1-6.5-6
		l-4.4-14.4h-25.6l-4.6,14.4c-0.8,2.9-2.8,6-6.5,6c-3.4,0-6.6-3.1-5.8-6L453.5,232.8z M459.7,255.1h-0.2l-9.4,32.5H469L459.7,255.1z
		"/>
	<path class="st0" d="M569.6,308c3.1,0,6,1.7,6,6c0,4.3-2.9,6-6,6h-53.3v-87.3c0-3.8,1.7-6,6-6c4.3,0,6,2.2,6,6V308H569.6z"/>
	<path class="st0" d="M614.7,238.7v4.3c0,3.8-1.7,6-6,6c-4.3,0-6-2.2-6-6v-16.3H662V243c0,3.8-1.7,6-6,6c-4.3,0-6-2.2-6-6v-4.3
		h-11.6V314c0,3.8-1.7,6-6,6c-4.3,0-6-2.2-6-6v-75.3H614.7z"/>
</g>
</svg>
