<?xml version="1.0" encoding="UTF-8"?>
<svg width="670.7" height="376.6" version="1.1" viewBox="0 0 670.7 376.6" xml:space="preserve" xmlns="http://www.w3.org/2000/svg"><style id="style" type="text/css">
	.st0{fill:#606060;}
	.st1{fill:#FF5E5B;}
</style><polygon id="zigzag" class="st0" transform="translate(-168.1,-33.3)" points="220.5 259.9 245.1 280.1 271 258.9 296.8 280.1 322.6 258.9 348.5 280.1 374.3 258.9 400.1 280.1 425.9 258.9 451.8 280.1 477.6 258.9 503.4 280.1 529.3 258.9 555.1 280.1 580.9 258.9 606.7 280.1 632.6 258.9 658.4 280.1 684.2 258.9 710.1 280.1 735.9 258.9 761.7 280.1 786.4 259.9 788.8 262.1 761.7 284.2 735.9 263.1 710.1 284.2 684.2 263.1 658.4 284.2 632.6 263.1 606.7 284.2 580.9 263.1 555.1 284.2 529.3 263.1 503.4 284.2 477.6 263.1 451.8 284.2 425.9 263.1 400.1 284.2 374.3 263.1 348.5 284.2 322.6 263.1 296.8 284.2 271 263.1 245.1 284.2 218.1 262.1"/><g id="TRILL" transform="translate(-168.1,-33.3)"><path id="T" class="st1" d="m279.6 211.5h-25.4v-103.9h-34.1v-24.3h93.5v24.4h-34.1v103.8z"/><path id="R" class="st1" d="m428.1 211.5h-25.4v-44.7c0-1.4-0.2-2.4-0.6-2.9-0.2-0.1-1.1-0.4-2.8-0.4h-30.7v48.1h-25.4v-128.3h47.4c6.7 0 12.7 1 17.7 3 5.2 2 9.5 4.7 13 8.2s6.2 7.5 8 12.1c1.8 4.5 2.6 9.3 2.6 14.2v5c0 5.3-1.4 10.6-4.3 15.8-1.6 2.9-3.6 5.4-6.1 7.5 0.7 0.6 1.4 1.3 2.1 2 2.8 3.2 4.3 7.5 4.3 12.8v47.6zm-26-47.7m-33.5-24.8h20.4c6.4 0 11.1-1.2 13.9-3.7 2.6-2.3 3.8-5.8 3.8-10.7v-3c0-4.3-1.3-7.6-4-10.2s-7.4-3.9-13.7-3.9h-20.4z"/><path id="I" class="st1" d="m547.4 211.5h-85.4v-24.4h30v-79.5h-30v-24.3h85.5v24.4h-30.1v79.5h30.1v24.3z"/><path class="st1" d="m667.8 211.5h-86.5v-128.2h25.4v103.9h61.1z"/><path class="st1" d="m786.7 211.5h-86.5v-128.2h25.4v103.9h61.1z"/></g><g id="slogan" transform="translate(-168.1,-33.3)"><path class="st0" d="m278.8 332.1h15.2v2.4h-6.3v19.2h-2.6v-19.2h-6.3z"/><path class="st0" d="m313 346.3c0 1.3-0.2 2.4-0.6 3.4s-1 1.8-1.7 2.5-1.5 1.2-2.5 1.5-1.9 0.5-2.9 0.5-2-0.2-2.9-0.5c-0.9-0.4-1.7-0.9-2.4-1.5-0.7-0.7-1.3-1.5-1.7-2.5s-0.6-2.1-0.6-3.4v-0.4c0-1.3 0.2-2.4 0.6-3.4s1-1.8 1.7-2.5 1.5-1.2 2.5-1.5c0.9-0.4 1.9-0.5 2.9-0.5s2 0.2 2.9 0.5c0.9 0.4 1.7 0.9 2.5 1.5s1.3 1.5 1.7 2.5 0.6 2.1 0.6 3.4v0.4zm-7.7 5.6c0.7 0 1.4-0.1 2.1-0.4 0.6-0.3 1.2-0.6 1.7-1.1s0.8-1.1 1.1-1.8 0.4-1.5 0.4-2.3v-0.4c0-0.8-0.1-1.6-0.4-2.3s-0.6-1.3-1.1-1.8-1-0.9-1.7-1.2c-0.6-0.3-1.3-0.4-2-0.4s-1.4 0.1-2 0.4-1.2 0.7-1.7 1.2-0.8 1.1-1.1 1.8-0.4 1.4-0.4 2.3v0.4c0 0.9 0.1 1.6 0.4 2.3s0.6 1.3 1.1 1.8 1 0.9 1.7 1.1c0.5 0.3 1.2 0.4 1.9 0.4z"/><path class="st0" d="m328.5 338.4h2.4v15.3h-2.4v-2.7h-0.4c-0.5 1-1.1 1.8-1.9 2.4s-1.8 0.9-3.1 0.9c-0.8 0-1.6-0.1-2.3-0.4s-1.3-0.7-1.8-1.3-0.9-1.2-1.2-2.1c-0.3-0.8-0.4-1.8-0.4-2.9v-9.2h2.4v8.8c0 1.6 0.3 2.8 1 3.5s1.7 1.1 3 1.1c1.5 0 2.6-0.5 3.4-1.5s1.3-2.3 1.3-4z"/><path class="st0" d="m350.8 348.3c-0.2 0.8-0.4 1.6-0.9 2.4-0.4 0.7-0.9 1.3-1.5 1.9-0.6 0.5-1.3 0.9-2.2 1.2-0.8 0.3-1.7 0.4-2.8 0.4s-2.1-0.2-3-0.5-1.8-0.9-2.5-1.5c-0.7-0.7-1.3-1.5-1.7-2.5s-0.6-2.1-0.6-3.3v-0.4c0-1.2 0.2-2.4 0.6-3.3 0.4-1 1-1.8 1.7-2.5s1.6-1.2 2.5-1.6 2-0.6 3-0.6 1.9 0.1 2.7 0.4 1.6 0.7 2.2 1.2 1.1 1.2 1.5 1.9 0.7 1.5 0.8 2.4l-2.4 0.6c-0.1-0.5-0.2-1.1-0.4-1.6s-0.6-0.9-1-1.3-0.9-0.7-1.5-0.9-1.2-0.3-2-0.3c-0.7 0-1.4 0.1-2.1 0.4-0.6 0.3-1.2 0.7-1.7 1.2s-0.9 1.1-1.2 1.8-0.4 1.5-0.4 2.3v0.4c0 0.9 0.1 1.6 0.4 2.3s0.7 1.3 1.2 1.7c0.5 0.5 1.1 0.8 1.7 1.1 0.7 0.3 1.4 0.4 2.1 0.4 0.8 0 1.4-0.1 2-0.4 0.6-0.2 1.1-0.5 1.5-0.9s0.7-0.8 1-1.3c0.2-0.5 0.4-1 0.5-1.5z"/><path class="st0" d="m357.8 353.7h-2.4v-21.7h2.4v9.1h0.4c0.5-1 1.1-1.8 2-2.4s1.9-0.9 3.1-0.9c1.7 0 3 0.6 4.1 1.7 1 1.1 1.6 2.8 1.6 5v9.2h-2.4v-8.7c0-1.6-0.4-2.8-1.1-3.6s-1.7-1.2-2.9-1.2c-1.5 0-2.6 0.5-3.4 1.5s-1.3 2.3-1.3 4v8z"/><path class="st0" d="m396.4 342.4c0 0.7 0.3 1.3 0.9 1.7s1.8 0.6 3.4 0.8c1.8 0.1 3.2 0.6 4.1 1.3s1.4 1.7 1.4 3.1v0.2c0 0.7-0.1 1.4-0.4 2s-0.7 1.1-1.2 1.5-1.2 0.7-1.9 0.9c-0.8 0.2-1.6 0.3-2.5 0.3-1.2 0-2.2-0.2-3.1-0.5s-1.6-0.7-2.1-1.3c-0.6-0.5-1-1.1-1.3-1.8s-0.5-1.3-0.5-2l2.3-0.6c0.1 1.2 0.6 2.1 1.4 2.8s1.9 1.1 3.2 1.1c1.1 0 2-0.2 2.7-0.7 0.7-0.4 1-1.1 1-1.9 0-0.9-0.3-1.5-1-1.9s-1.8-0.6-3.3-0.7c-1.8-0.1-3.1-0.5-4.1-1.2-0.9-0.7-1.4-1.7-1.4-3.1v-0.2c0-0.7 0.2-1.4 0.5-1.9s0.7-1 1.3-1.4c0.5-0.4 1.1-0.6 1.8-0.8s1.4-0.3 2.1-0.3c1 0 1.9 0.1 2.7 0.4s1.4 0.6 1.9 1.1 0.9 1 1.2 1.5c0.3 0.6 0.5 1.2 0.5 1.7l-2.3 0.6c-0.1-1-0.5-1.8-1.2-2.3-0.7-0.6-1.6-0.8-2.7-0.8-0.4 0-0.9 0-1.3 0.1s-0.8 0.2-1.1 0.4-0.6 0.4-0.7 0.7c-0.2 0.5-0.3 0.8-0.3 1.2z"/><path class="st0" d="m413.9 346.8c0.1 1.5 0.5 2.8 1.4 3.7s2.1 1.4 3.7 1.4c0.7 0 1.4-0.1 1.9-0.2s1-0.4 1.4-0.7 0.7-0.6 0.9-1l0.6-1.2 2.3 0.6c-0.4 1.4-1.2 2.6-2.4 3.5s-2.7 1.3-4.7 1.3c-1.1 0-2.1-0.2-3-0.6s-1.7-0.9-2.4-1.6-1.2-1.5-1.5-2.5c-0.4-1-0.6-2-0.6-3.2v-0.7c0-1.1 0.2-2.1 0.6-3s0.9-1.7 1.6-2.4 1.5-1.2 2.4-1.6 1.9-0.6 3-0.6c1.3 0 2.3 0.2 3.3 0.7 0.9 0.5 1.7 1 2.3 1.7s1 1.4 1.3 2.2 0.4 1.5 0.4 2.2v2zm5.2-6.5c-0.7 0-1.3 0.1-1.9 0.3s-1.1 0.5-1.5 0.9-0.8 0.9-1.1 1.4-0.5 1.1-0.5 1.7h9.9c0-0.7-0.2-1.3-0.5-1.8s-0.6-1-1.1-1.4c-0.4-0.4-0.9-0.7-1.5-0.9-0.7-0.1-1.2-0.2-1.8-0.2z"/><path class="st0" d="m433.5 353.7h-2.4v-15.3h2.4v2.6h0.4c0.9-2 2.6-3 4.9-3 1.8 0 3.2 0.6 4.2 1.7 1.1 1.1 1.6 2.8 1.6 5v9.2h-2.4v-8.7c0-1.6-0.4-2.8-1.1-3.6s-1.7-1.2-2.9-1.2c-1.5 0-2.6 0.5-3.4 1.5s-1.3 2.3-1.3 4z"/><path class="st0" d="m453.2 342.4c0 0.7 0.3 1.3 0.9 1.7s1.8 0.6 3.4 0.8c1.8 0.1 3.2 0.6 4.1 1.3s1.4 1.7 1.4 3.1v0.2c0 0.7-0.1 1.4-0.4 2s-0.7 1.1-1.2 1.5-1.2 0.7-1.9 0.9c-0.8 0.2-1.6 0.3-2.5 0.3-1.2 0-2.2-0.2-3.1-0.5s-1.6-0.7-2.1-1.3c-0.6-0.5-1-1.1-1.3-1.8s-0.5-1.3-0.5-2l2.3-0.6c0.1 1.2 0.6 2.1 1.4 2.8s1.9 1.1 3.2 1.1c1.1 0 2-0.2 2.7-0.7 0.7-0.4 1-1.1 1-1.9 0-0.9-0.3-1.5-1-1.9s-1.8-0.6-3.3-0.7c-1.8-0.1-3.1-0.5-4.1-1.2-0.9-0.7-1.4-1.7-1.4-3.1v-0.2c0-0.7 0.2-1.4 0.5-1.9s0.7-1 1.3-1.4c0.5-0.4 1.1-0.6 1.8-0.8s1.4-0.3 2.1-0.3c1 0 1.9 0.1 2.7 0.4s1.4 0.6 1.9 1.1 0.9 1 1.2 1.5c0.3 0.6 0.5 1.2 0.5 1.7l-2.3 0.6c-0.1-1-0.5-1.8-1.2-2.3-0.7-0.6-1.6-0.8-2.7-0.8-0.4 0-0.9 0-1.3 0.1s-0.8 0.2-1.1 0.4-0.6 0.4-0.7 0.7c-0.2 0.5-0.3 0.8-0.3 1.2z"/><path class="st0" d="m469.3 351.5h5.4v-10.9h-4.8v-2.2h7.2v13.1h5v2.2h-12.8zm4.4-17.7c0-0.6 0.2-1.1 0.6-1.5s0.9-0.6 1.5-0.6 1.1 0.2 1.5 0.6 0.6 0.9 0.6 1.5-0.2 1.1-0.6 1.5-0.9 0.6-1.5 0.6-1.1-0.2-1.5-0.6-0.6-0.9-0.6-1.5z"/><path class="st0" d="m490.3 353.7h-2.4v-15.3h2.4v2.6h0.4c0.9-2 2.6-3 4.9-3 1.8 0 3.2 0.6 4.2 1.7 1.1 1.1 1.6 2.8 1.6 5v9.2h-2.4v-8.7c0-1.6-0.4-2.8-1.1-3.6s-1.7-1.2-2.9-1.2c-1.5 0-2.6 0.5-3.4 1.5s-1.3 2.3-1.3 4z"/><path class="st0" d="m518.5 351.4h-0.4c-0.5 0.9-1.2 1.6-2 2.1s-1.8 0.7-2.8 0.7-2-0.2-2.9-0.5-1.7-0.9-2.4-1.5c-0.7-0.7-1.2-1.5-1.6-2.5s-0.6-2.1-0.6-3.4v-0.5c0-1.2 0.2-2.3 0.6-3.3s1-1.8 1.6-2.5c0.7-0.7 1.5-1.2 2.4-1.5 0.9-0.4 1.9-0.5 2.8-0.5 1.1 0 2.1 0.2 2.9 0.7s1.5 1.2 2 2.1h0.4v-2.4h2.4v19.1c0 0.7-0.2 1.3-0.7 1.7-0.4 0.5-1 0.7-1.7 0.7h-10v-2.2h9.1c0.6 0 0.8-0.3 0.8-0.9v-5.4zm-5.2 0.5c0.7 0 1.4-0.1 2-0.4s1.2-0.7 1.6-1.1c0.5-0.5 0.8-1.1 1.1-1.8s0.4-1.5 0.4-2.3v-0.4c0-0.8-0.1-1.6-0.4-2.3s-0.6-1.3-1.1-1.8-1-0.9-1.6-1.2-1.3-0.4-2-0.4-1.4 0.1-2 0.4-1.2 0.6-1.6 1.1c-0.5 0.5-0.8 1.1-1.1 1.8s-0.4 1.4-0.4 2.3v0.5c0 0.9 0.1 1.6 0.4 2.3s0.6 1.3 1.1 1.7c0.5 0.5 1 0.9 1.6 1.1 0.6 0.4 1.3 0.5 2 0.5z"/><path class="st0" d="m544.5 338.4h4.7v-3.9c0-0.7 0.2-1.3 0.7-1.7 0.4-0.5 1-0.7 1.7-0.7h6.1v2.2h-5.2c-0.6 0-0.8 0.3-0.8 0.9v3.2h6.4v2.2h-6.4v13.1h-2.4v-13.1h-4.7v-2.2z"/><path class="st0" d="m578.1 346.3c0 1.3-0.2 2.4-0.6 3.4s-1 1.8-1.7 2.5-1.5 1.2-2.5 1.5c-0.9 0.4-1.9 0.5-2.9 0.5s-2-0.2-2.9-0.5-1.7-0.9-2.4-1.5-1.3-1.5-1.7-2.5-0.6-2.1-0.6-3.4v-0.4c0-1.3 0.2-2.4 0.6-3.4s1-1.8 1.7-2.5 1.5-1.2 2.5-1.5c0.9-0.4 1.9-0.5 2.9-0.5s2 0.2 2.9 0.5c0.9 0.4 1.7 0.9 2.5 1.5 0.7 0.7 1.3 1.5 1.7 2.5s0.6 2.1 0.6 3.4v0.4zm-7.7 5.6c0.7 0 1.4-0.1 2.1-0.4 0.6-0.3 1.2-0.6 1.7-1.1s0.8-1.1 1.1-1.8 0.4-1.5 0.4-2.3v-0.4c0-0.8-0.1-1.6-0.4-2.3s-0.6-1.3-1.1-1.8-1-0.9-1.7-1.2c-0.6-0.3-1.3-0.4-2-0.4s-1.4 0.1-2 0.4-1.2 0.7-1.7 1.2-0.8 1.1-1.1 1.8-0.4 1.4-0.4 2.3v0.4c0 0.9 0.1 1.6 0.4 2.3s0.6 1.3 1.1 1.8 1 0.9 1.7 1.1c0.5 0.3 1.1 0.4 1.9 0.4z"/><path class="st0" d="m581.7 338.4h5.6v2h0.4c0.4-0.8 0.9-1.5 1.7-1.9 0.7-0.4 1.5-0.6 2.5-0.6 1.5 0 2.8 0.5 3.7 1.5s1.5 2.5 1.5 4.4l-2.5 0.4c0-1.4-0.3-2.4-1-3.1s-1.5-0.9-2.5-0.9c-0.6 0-1.2 0.1-1.7 0.4s-0.9 0.6-1.2 1-0.5 0.9-0.7 1.5c-0.1 0.6-0.2 1.2-0.2 1.9v6.5h3.9v2.2h-9.8v-2.2h3.5v-10.9h-3.2z"/><path class="st0" d="m635.2 353.7h-2.4v-11c0-0.7-0.2-1.3-0.5-1.8s-0.9-0.7-1.6-0.7-1.2 0.3-1.7 0.8c-0.4 0.5-0.6 1.3-0.6 2.3v10.4h-2.4v-11.1c0-0.7-0.2-1.2-0.6-1.7-0.4-0.4-0.9-0.7-1.5-0.7-0.7 0-1.3 0.3-1.7 0.8s-0.6 1.2-0.6 2.1v10.6h-2.4v-15.3h2.4v1.7h0.4c0.3-0.7 0.7-1.3 1.2-1.6s1.1-0.5 1.8-0.5 1.4 0.2 1.8 0.6c0.5 0.4 0.8 0.9 1 1.5h0.4c0.7-1.4 1.8-2.1 3.3-2.1 1.2 0 2 0.4 2.7 1.1 0.6 0.7 0.9 1.7 0.9 2.9v11.7z"/><path class="st0" d="m650.5 351.1h-0.4c-0.5 1-1.2 1.8-2.1 2.3s-1.8 0.7-2.8 0.7-1.9-0.2-2.8-0.5-1.6-0.8-2.3-1.5-1.2-1.5-1.5-2.5c-0.4-1-0.6-2.1-0.6-3.4v-0.5c0-1.3 0.2-2.4 0.6-3.3 0.4-1 0.9-1.8 1.5-2.5s1.4-1.2 2.3-1.5c0.9-0.4 1.8-0.5 2.8-0.5 1.1 0 2 0.2 2.9 0.7s1.5 1.2 2 2.2h0.4v-2.4h2.4v12.2c0 0.6 0.3 0.9 0.8 0.9h0.8v2.2h-1.6c-0.7 0-1.3-0.2-1.7-0.7s-0.7-1-0.7-1.7zm-5 0.8c0.7 0 1.4-0.1 2-0.4s1.1-0.7 1.6-1.1c0.4-0.5 0.8-1.1 1-1.8s0.4-1.5 0.4-2.3v-0.4c0-0.8-0.1-1.6-0.4-2.3-0.2-0.7-0.6-1.3-1-1.8s-1-0.9-1.6-1.2-1.3-0.4-2-0.4-1.4 0.1-2 0.4-1.1 0.6-1.6 1.1-0.8 1.1-1 1.8-0.4 1.4-0.4 2.3v0.5c0 1.8 0.5 3.1 1.4 4.1 1 1 2.2 1.5 3.6 1.5z"/><path class="st0" d="m662.2 344.8h0.5l5.8-6.4h3v0.2l-6.4 7v0.6l7.1 7.4v0.2h-3l-6.5-6.7h-0.6v6.7h-2.4v-21.7h2.4v12.7z"/><path class="st0" d="m679 346.8c0.1 1.5 0.5 2.8 1.4 3.7s2.1 1.4 3.7 1.4c0.7 0 1.4-0.1 1.9-0.2s1-0.4 1.4-0.7 0.7-0.6 0.9-1l0.6-1.2 2.3 0.6c-0.4 1.4-1.2 2.6-2.4 3.5s-2.7 1.3-4.7 1.3c-1.1 0-2.1-0.2-3-0.6s-1.7-0.9-2.4-1.6-1.2-1.5-1.5-2.5c-0.4-1-0.6-2-0.6-3.2v-0.7c0-1.1 0.2-2.1 0.6-3s0.9-1.7 1.6-2.4 1.5-1.2 2.4-1.6 1.9-0.6 3-0.6c1.3 0 2.3 0.2 3.3 0.7 0.9 0.5 1.7 1 2.3 1.7s1 1.4 1.3 2.2 0.4 1.5 0.4 2.2v2zm5.1-6.5c-0.7 0-1.3 0.1-1.9 0.3s-1.1 0.5-1.5 0.9-0.8 0.9-1.1 1.4-0.5 1.1-0.5 1.7h9.9c0-0.7-0.2-1.3-0.5-1.8s-0.6-1-1.1-1.4c-0.4-0.4-0.9-0.7-1.5-0.9-0.6-0.1-1.2-0.2-1.8-0.2z"/><path class="st0" d="m695.3 338.4h5.6v2h0.4c0.4-0.8 0.9-1.5 1.7-1.9 0.7-0.4 1.5-0.6 2.5-0.6 1.5 0 2.8 0.5 3.7 1.5s1.5 2.5 1.5 4.4l-2.5 0.4c0-1.4-0.3-2.4-1-3.1s-1.5-0.9-2.5-0.9c-0.6 0-1.2 0.1-1.7 0.4s-0.9 0.6-1.2 1-0.5 0.9-0.7 1.5c-0.1 0.6-0.2 1.2-0.2 1.9v6.5h3.9v2.2h-9.8v-2.2h3.5v-10.9h-3.2z"/><path class="st0" d="m718.3 342.4c0 0.7 0.3 1.3 0.9 1.7s1.8 0.6 3.4 0.8c1.8 0.1 3.2 0.6 4.1 1.3s1.4 1.7 1.4 3.1v0.2c0 0.7-0.1 1.4-0.4 2s-0.7 1.1-1.2 1.5-1.2 0.7-1.9 0.9-1.6 0.3-2.5 0.3c-1.2 0-2.2-0.2-3.1-0.5s-1.6-0.7-2.1-1.3c-0.6-0.5-1-1.1-1.3-1.8s-0.5-1.3-0.5-2l2.3-0.6c0.1 1.2 0.6 2.1 1.4 2.8s1.9 1.1 3.2 1.1c1.1 0 2-0.2 2.7-0.7 0.7-0.4 1-1.1 1-1.9 0-0.9-0.3-1.5-1-1.9s-1.8-0.6-3.3-0.7c-1.8-0.1-3.1-0.5-4.1-1.2s-1.4-1.7-1.4-3.1v-0.2c0-0.7 0.2-1.4 0.5-1.9s0.7-1 1.3-1.4c0.5-0.4 1.1-0.6 1.8-0.8s1.4-0.3 2.1-0.3c1 0 1.9 0.1 2.7 0.4s1.4 0.6 1.9 1.1 0.9 1 1.2 1.5c0.3 0.6 0.5 1.2 0.5 1.7l-2.3 0.6c-0.1-1-0.5-1.8-1.2-2.3-0.7-0.6-1.6-0.8-2.7-0.8-0.4 0-0.9 0-1.3 0.1s-0.8 0.2-1.1 0.4-0.6 0.4-0.7 0.7-0.3 0.8-0.3 1.2z"/></g></svg>
