<?xml version="1.0" encoding="utf-8"?>
<!-- Generator: Adobe Illustrator 22.1.0, SVG Export Plug-In . SVG Version: 6.00 Build 0)  -->
<svg version="1.1" id="Layer_1" xmlns="http://www.w3.org/2000/svg" xmlns:xlink="http://www.w3.org/1999/xlink" x="0px" y="0px"
	 viewBox="0 0 1000 700" style="enable-background:new 0 0 1000 700;" xml:space="preserve">
<style type="text/css">
	.st0{fill:#606060;}
	.st1{fill:#FF5E5B;}
</style>
<polygon class="st0" points="296.8,284.2 271,263.1 245.1,284.2 218.1,262.1 220.5,259.9 245.1,280.1 271,258.9 296.8,280.1 
	322.6,258.9 348.5,280.1 374.3,258.9 400.1,280.1 425.9,258.9 451.8,280.1 477.6,258.9 503.4,280.1 529.3,258.9 555.1,280.1 
	580.9,258.9 606.7,280.1 632.6,258.9 658.4,280.1 684.2,258.9 710.1,280.1 735.9,258.9 761.7,280.1 786.4,259.9 788.8,262.1 
	761.7,284.2 735.9,263.1 710.1,284.2 684.2,263.1 658.4,284.2 632.6,263.1 606.7,284.2 580.9,263.1 555.1,284.2 529.3,263.1 
	503.4,284.2 477.6,263.1 451.8,284.2 425.9,263.1 400.1,284.2 374.3,263.1 348.5,284.2 322.6,263.1 "/>
<g>
	<g>
		<path class="st1" d="M279.6,211.5h-25.4V107.6h-34.1V83.3h93.5v24.4h-34.1V211.5z"/>
	</g>
	<g>
		<path class="st1" d="M428.1,211.5h-25.4v-44.7c0-1.4-0.2-2.4-0.6-2.9c-0.2-0.1-1.1-0.4-2.8-0.4h-30.7v48.1h-25.4V83.3h47.4
			c6.7,0,12.7,1,17.7,3c5.2,2,9.5,4.7,13,8.2c3.5,3.5,6.2,7.5,8,12.1c1.8,4.5,2.6,9.3,2.6,14.2v5c0,5.3-1.4,10.6-4.3,15.8
			c-1.6,2.9-3.6,5.4-6.1,7.5c0.7,0.6,1.4,1.3,2.1,2c2.8,3.2,4.3,7.5,4.3,12.8V211.5z M402.1,163.8L402.1,163.8L402.1,163.8z
			 M368.6,139H389c6.4,0,11.1-1.2,13.9-3.7c2.6-2.3,3.8-5.8,3.8-10.7v-3c0-4.3-1.3-7.6-4-10.2c-2.7-2.6-7.4-3.9-13.7-3.9h-20.4V139z
			"/>
	</g>
	<g>
		<path class="st1" d="M547.4,211.5H462v-24.4H492v-79.5H462V83.3h85.5v24.4h-30.1v79.5h30.1V211.5z"/>
	</g>
	<g>
		<path class="st1" d="M667.8,211.5h-86.5V83.3h25.4v103.9h61.1V211.5z"/>
	</g>
	<g>
		<path class="st1" d="M786.7,211.5h-86.5V83.3h25.4v103.9h61.1V211.5z"/>
	</g>
</g>
<g>
	<path class="st0" d="M278.8,332.1H294v2.4h-6.3v19.2h-2.6v-19.2h-6.3V332.1z"/>
	<path class="st0" d="M313,346.3c0,1.3-0.2,2.4-0.6,3.4c-0.4,1-1,1.8-1.7,2.5c-0.7,0.7-1.5,1.2-2.5,1.5s-1.9,0.5-2.9,0.5
		c-1,0-2-0.2-2.9-0.5c-0.9-0.4-1.7-0.9-2.4-1.5c-0.7-0.7-1.3-1.5-1.7-2.5c-0.4-1-0.6-2.1-0.6-3.4v-0.4c0-1.3,0.2-2.4,0.6-3.4
		c0.4-1,1-1.8,1.7-2.5c0.7-0.7,1.5-1.2,2.5-1.5c0.9-0.4,1.9-0.5,2.9-0.5c1,0,2,0.2,2.9,0.5c0.9,0.4,1.7,0.9,2.5,1.5s1.3,1.5,1.7,2.5
		c0.4,1,0.6,2.1,0.6,3.4V346.3z M305.3,351.9c0.7,0,1.4-0.1,2.1-0.4c0.6-0.3,1.2-0.6,1.7-1.1c0.5-0.5,0.8-1.1,1.1-1.8
		c0.3-0.7,0.4-1.5,0.4-2.3v-0.4c0-0.8-0.1-1.6-0.4-2.3c-0.3-0.7-0.6-1.3-1.1-1.8c-0.5-0.5-1-0.9-1.7-1.2c-0.6-0.3-1.3-0.4-2-0.4
		c-0.7,0-1.4,0.1-2,0.4c-0.6,0.3-1.2,0.7-1.7,1.2c-0.5,0.5-0.8,1.1-1.1,1.8s-0.4,1.4-0.4,2.3v0.4c0,0.9,0.1,1.6,0.4,2.3
		s0.6,1.3,1.1,1.8c0.5,0.5,1,0.9,1.7,1.1C303.9,351.8,304.6,351.9,305.3,351.9z"/>
	<path class="st0" d="M328.5,338.4h2.4v15.3h-2.4V351h-0.4c-0.5,1-1.1,1.8-1.9,2.4c-0.8,0.6-1.8,0.9-3.1,0.9c-0.8,0-1.6-0.1-2.3-0.4
		s-1.3-0.7-1.8-1.3s-0.9-1.2-1.2-2.1c-0.3-0.8-0.4-1.8-0.4-2.9v-9.2h2.4v8.8c0,1.6,0.3,2.8,1,3.5c0.7,0.7,1.7,1.1,3,1.1
		c1.5,0,2.6-0.5,3.4-1.5c0.8-1,1.3-2.3,1.3-4V338.4z"/>
	<path class="st0" d="M350.8,348.3c-0.2,0.8-0.4,1.6-0.9,2.4c-0.4,0.7-0.9,1.3-1.5,1.9c-0.6,0.5-1.3,0.9-2.2,1.2
		c-0.8,0.3-1.7,0.4-2.8,0.4c-1.1,0-2.1-0.2-3-0.5s-1.8-0.9-2.5-1.5c-0.7-0.7-1.3-1.5-1.7-2.5c-0.4-1-0.6-2.1-0.6-3.3v-0.4
		c0-1.2,0.2-2.4,0.6-3.3c0.4-1,1-1.8,1.7-2.5c0.7-0.7,1.6-1.2,2.5-1.6s2-0.6,3-0.6c1,0,1.9,0.1,2.7,0.4c0.8,0.3,1.6,0.7,2.2,1.2
		c0.6,0.5,1.1,1.2,1.5,1.9c0.4,0.7,0.7,1.5,0.8,2.4l-2.4,0.6c-0.1-0.5-0.2-1.1-0.4-1.6c-0.2-0.5-0.6-0.9-1-1.3
		c-0.4-0.4-0.9-0.7-1.5-0.9c-0.6-0.2-1.2-0.3-2-0.3c-0.7,0-1.4,0.1-2.1,0.4c-0.6,0.3-1.2,0.7-1.7,1.2c-0.5,0.5-0.9,1.1-1.2,1.8
		c-0.3,0.7-0.4,1.5-0.4,2.3v0.4c0,0.9,0.1,1.6,0.4,2.3c0.3,0.7,0.7,1.3,1.2,1.7c0.5,0.5,1.1,0.8,1.7,1.1c0.7,0.3,1.4,0.4,2.1,0.4
		c0.8,0,1.4-0.1,2-0.4c0.6-0.2,1.1-0.5,1.5-0.9c0.4-0.4,0.7-0.8,1-1.3c0.2-0.5,0.4-1,0.5-1.5L350.8,348.3z"/>
	<path class="st0" d="M357.8,353.7h-2.4v-21.7h2.4v9.1h0.4c0.5-1,1.1-1.8,2-2.4c0.9-0.6,1.9-0.9,3.1-0.9c1.7,0,3,0.6,4.1,1.7
		c1,1.1,1.6,2.8,1.6,5v9.2h-2.4v-8.7c0-1.6-0.4-2.8-1.1-3.6c-0.7-0.8-1.7-1.2-2.9-1.2c-1.5,0-2.6,0.5-3.4,1.5c-0.8,1-1.3,2.3-1.3,4
		V353.7z"/>
	<path class="st0" d="M396.4,342.4c0,0.7,0.3,1.3,0.9,1.7c0.6,0.4,1.8,0.6,3.4,0.8c1.8,0.1,3.2,0.6,4.1,1.3c0.9,0.7,1.4,1.7,1.4,3.1
		v0.2c0,0.7-0.1,1.4-0.4,2c-0.3,0.6-0.7,1.1-1.2,1.5s-1.2,0.7-1.9,0.9c-0.8,0.2-1.6,0.3-2.5,0.3c-1.2,0-2.2-0.2-3.1-0.5
		c-0.9-0.3-1.6-0.7-2.1-1.3c-0.6-0.5-1-1.1-1.3-1.8c-0.3-0.7-0.5-1.3-0.5-2l2.3-0.6c0.1,1.2,0.6,2.1,1.4,2.8
		c0.8,0.7,1.9,1.1,3.2,1.1c1.1,0,2-0.2,2.7-0.7c0.7-0.4,1-1.1,1-1.9c0-0.9-0.3-1.5-1-1.9c-0.7-0.4-1.8-0.6-3.3-0.7
		c-1.8-0.1-3.1-0.5-4.1-1.2c-0.9-0.7-1.4-1.7-1.4-3.1v-0.2c0-0.7,0.2-1.4,0.5-1.9c0.3-0.5,0.7-1,1.3-1.4c0.5-0.4,1.1-0.6,1.8-0.8
		s1.4-0.3,2.1-0.3c1,0,1.9,0.1,2.7,0.4c0.8,0.3,1.4,0.6,1.9,1.1s0.9,1,1.2,1.5c0.3,0.6,0.5,1.2,0.5,1.7l-2.3,0.6
		c-0.1-1-0.5-1.8-1.2-2.3c-0.7-0.6-1.6-0.8-2.7-0.8c-0.4,0-0.9,0-1.3,0.1c-0.4,0.1-0.8,0.2-1.1,0.4c-0.3,0.2-0.6,0.4-0.7,0.7
		C396.5,341.7,396.4,342,396.4,342.4z"/>
	<path class="st0" d="M413.9,346.8c0.1,1.5,0.5,2.8,1.4,3.7s2.1,1.4,3.7,1.4c0.7,0,1.4-0.1,1.9-0.2s1-0.4,1.4-0.7
		c0.4-0.3,0.7-0.6,0.9-1c0.2-0.4,0.4-0.8,0.6-1.2l2.3,0.6c-0.4,1.4-1.2,2.6-2.4,3.5c-1.2,0.9-2.7,1.3-4.7,1.3c-1.1,0-2.1-0.2-3-0.6
		c-0.9-0.4-1.7-0.9-2.4-1.6c-0.7-0.7-1.2-1.5-1.5-2.5c-0.4-1-0.6-2-0.6-3.2v-0.7c0-1.1,0.2-2.1,0.6-3c0.4-0.9,0.9-1.7,1.6-2.4
		c0.7-0.7,1.5-1.2,2.4-1.6c0.9-0.4,1.9-0.6,3-0.6c1.3,0,2.3,0.2,3.3,0.7c0.9,0.5,1.7,1,2.3,1.7c0.6,0.7,1,1.4,1.3,2.2
		c0.3,0.8,0.4,1.5,0.4,2.2v2H413.9z M419.1,340.3c-0.7,0-1.3,0.1-1.9,0.3c-0.6,0.2-1.1,0.5-1.5,0.9c-0.4,0.4-0.8,0.9-1.1,1.4
		c-0.3,0.5-0.5,1.1-0.5,1.7h9.9c0-0.7-0.2-1.3-0.5-1.8c-0.3-0.5-0.6-1-1.1-1.4c-0.4-0.4-0.9-0.7-1.5-0.9
		C420.2,340.4,419.7,340.3,419.1,340.3z"/>
	<path class="st0" d="M433.5,353.7h-2.4v-15.3h2.4v2.6h0.4c0.9-2,2.6-3,4.9-3c1.8,0,3.2,0.6,4.2,1.7c1.1,1.1,1.6,2.8,1.6,5v9.2h-2.4
		v-8.7c0-1.6-0.4-2.8-1.1-3.6c-0.7-0.8-1.7-1.2-2.9-1.2c-1.5,0-2.6,0.5-3.4,1.5c-0.8,1-1.3,2.3-1.3,4V353.7z"/>
	<path class="st0" d="M453.2,342.4c0,0.7,0.3,1.3,0.9,1.7c0.6,0.4,1.8,0.6,3.4,0.8c1.8,0.1,3.2,0.6,4.1,1.3c0.9,0.7,1.4,1.7,1.4,3.1
		v0.2c0,0.7-0.1,1.4-0.4,2c-0.3,0.6-0.7,1.1-1.2,1.5s-1.2,0.7-1.9,0.9c-0.8,0.2-1.6,0.3-2.5,0.3c-1.2,0-2.2-0.2-3.1-0.5
		c-0.9-0.3-1.6-0.7-2.1-1.3c-0.6-0.5-1-1.1-1.3-1.8c-0.3-0.7-0.5-1.3-0.5-2l2.3-0.6c0.1,1.2,0.6,2.1,1.4,2.8
		c0.8,0.7,1.9,1.1,3.2,1.1c1.1,0,2-0.2,2.7-0.7c0.7-0.4,1-1.1,1-1.9c0-0.9-0.3-1.5-1-1.9c-0.7-0.4-1.8-0.6-3.3-0.7
		c-1.8-0.1-3.1-0.5-4.1-1.2c-0.9-0.7-1.4-1.7-1.4-3.1v-0.2c0-0.7,0.2-1.4,0.5-1.9c0.3-0.5,0.7-1,1.3-1.4c0.5-0.4,1.1-0.6,1.8-0.8
		s1.4-0.3,2.1-0.3c1,0,1.9,0.1,2.7,0.4c0.8,0.3,1.4,0.6,1.9,1.1s0.9,1,1.2,1.5c0.3,0.6,0.5,1.2,0.5,1.7l-2.3,0.6
		c-0.1-1-0.5-1.8-1.2-2.3c-0.7-0.6-1.6-0.8-2.7-0.8c-0.4,0-0.9,0-1.3,0.1c-0.4,0.1-0.8,0.2-1.1,0.4c-0.3,0.2-0.6,0.4-0.7,0.7
		C453.3,341.7,453.2,342,453.2,342.4z"/>
	<path class="st0" d="M469.3,351.5h5.4v-10.9h-4.8v-2.2h7.2v13.1h5v2.2h-12.8V351.5z M473.7,333.8c0-0.6,0.2-1.1,0.6-1.5
		c0.4-0.4,0.9-0.6,1.5-0.6s1.1,0.2,1.5,0.6c0.4,0.4,0.6,0.9,0.6,1.5c0,0.6-0.2,1.1-0.6,1.5c-0.4,0.4-0.9,0.6-1.5,0.6
		s-1.1-0.2-1.5-0.6C473.9,334.9,473.7,334.4,473.7,333.8z"/>
	<path class="st0" d="M490.3,353.7h-2.4v-15.3h2.4v2.6h0.4c0.9-2,2.6-3,4.9-3c1.8,0,3.2,0.6,4.2,1.7c1.1,1.1,1.6,2.8,1.6,5v9.2H499
		v-8.7c0-1.6-0.4-2.8-1.1-3.6c-0.7-0.8-1.7-1.2-2.9-1.2c-1.5,0-2.6,0.5-3.4,1.5c-0.8,1-1.3,2.3-1.3,4V353.7z"/>
	<path class="st0" d="M518.5,351.4h-0.4c-0.5,0.9-1.2,1.6-2,2.1s-1.8,0.7-2.8,0.7c-1,0-2-0.2-2.9-0.5s-1.7-0.9-2.4-1.5
		c-0.7-0.7-1.2-1.5-1.6-2.5c-0.4-1-0.6-2.1-0.6-3.4v-0.5c0-1.2,0.2-2.3,0.6-3.3c0.4-1,1-1.8,1.6-2.5c0.7-0.7,1.5-1.2,2.4-1.5
		c0.9-0.4,1.9-0.5,2.8-0.5c1.1,0,2.1,0.2,2.9,0.7c0.8,0.5,1.5,1.2,2,2.1h0.4v-2.4h2.4v19.1c0,0.7-0.2,1.3-0.7,1.7
		c-0.4,0.5-1,0.7-1.7,0.7h-10v-2.2h9.1c0.6,0,0.8-0.3,0.8-0.9V351.4z M513.3,351.9c0.7,0,1.4-0.1,2-0.4c0.6-0.3,1.2-0.7,1.6-1.1
		c0.5-0.5,0.8-1.1,1.1-1.8c0.3-0.7,0.4-1.5,0.4-2.3v-0.4c0-0.8-0.1-1.6-0.4-2.3c-0.3-0.7-0.6-1.3-1.1-1.8c-0.5-0.5-1-0.9-1.6-1.2
		c-0.6-0.3-1.3-0.4-2-0.4c-0.7,0-1.4,0.1-2,0.4c-0.6,0.3-1.2,0.6-1.6,1.1c-0.5,0.5-0.8,1.1-1.1,1.8c-0.3,0.7-0.4,1.4-0.4,2.3v0.5
		c0,0.9,0.1,1.6,0.4,2.3c0.3,0.7,0.6,1.3,1.1,1.7c0.5,0.5,1,0.9,1.6,1.1C511.9,351.8,512.6,351.9,513.3,351.9z"/>
	<path class="st0" d="M544.5,338.4h4.7v-3.9c0-0.7,0.2-1.3,0.7-1.7c0.4-0.5,1-0.7,1.7-0.7h6.1v2.2h-5.2c-0.6,0-0.8,0.3-0.8,0.9v3.2
		h6.4v2.2h-6.4v13.1h-2.4v-13.1h-4.7V338.4z"/>
	<path class="st0" d="M578.1,346.3c0,1.3-0.2,2.4-0.6,3.4s-1,1.8-1.7,2.5s-1.5,1.2-2.5,1.5c-0.9,0.4-1.9,0.5-2.9,0.5
		c-1,0-2-0.2-2.9-0.5s-1.7-0.9-2.4-1.5s-1.3-1.5-1.7-2.5s-0.6-2.1-0.6-3.4v-0.4c0-1.3,0.2-2.4,0.6-3.4s1-1.8,1.7-2.5
		c0.7-0.7,1.5-1.2,2.5-1.5c0.9-0.4,1.9-0.5,2.9-0.5s2,0.2,2.9,0.5c0.9,0.4,1.7,0.9,2.5,1.5c0.7,0.7,1.3,1.5,1.7,2.5s0.6,2.1,0.6,3.4
		V346.3z M570.4,351.9c0.7,0,1.4-0.1,2.1-0.4c0.6-0.3,1.2-0.6,1.7-1.1s0.8-1.1,1.1-1.8c0.3-0.7,0.4-1.5,0.4-2.3v-0.4
		c0-0.8-0.1-1.6-0.4-2.3c-0.3-0.7-0.6-1.3-1.1-1.8c-0.5-0.5-1-0.9-1.7-1.2c-0.6-0.3-1.3-0.4-2-0.4s-1.4,0.1-2,0.4
		c-0.6,0.3-1.2,0.7-1.7,1.2c-0.5,0.5-0.8,1.1-1.1,1.8c-0.3,0.7-0.4,1.4-0.4,2.3v0.4c0,0.9,0.1,1.6,0.4,2.3c0.3,0.7,0.6,1.3,1.1,1.8
		c0.5,0.5,1,0.9,1.7,1.1C569,351.8,569.6,351.9,570.4,351.9z"/>
	<path class="st0" d="M581.7,338.4h5.6v2h0.4c0.4-0.8,0.9-1.5,1.7-1.9c0.7-0.4,1.5-0.6,2.5-0.6c1.5,0,2.8,0.5,3.7,1.5
		c0.9,1,1.5,2.5,1.5,4.4l-2.5,0.4c0-1.4-0.3-2.4-1-3.1s-1.5-0.9-2.5-0.9c-0.6,0-1.2,0.1-1.7,0.4s-0.9,0.6-1.2,1
		c-0.3,0.4-0.5,0.9-0.7,1.5c-0.1,0.6-0.2,1.2-0.2,1.9v6.5h3.9v2.2h-9.8v-2.2h3.5v-10.9h-3.2V338.4z"/>
	<path class="st0" d="M635.2,353.7h-2.4v-11c0-0.7-0.2-1.3-0.5-1.8c-0.3-0.5-0.9-0.7-1.6-0.7c-0.7,0-1.2,0.3-1.7,0.8
		c-0.4,0.5-0.6,1.3-0.6,2.3v10.4H626v-11.1c0-0.7-0.2-1.2-0.6-1.7c-0.4-0.4-0.9-0.7-1.5-0.7c-0.7,0-1.3,0.3-1.7,0.8
		c-0.4,0.5-0.6,1.2-0.6,2.1v10.6h-2.4v-15.3h2.4v1.7h0.4c0.3-0.7,0.7-1.3,1.2-1.6c0.5-0.3,1.1-0.5,1.8-0.5c0.7,0,1.4,0.2,1.8,0.6
		c0.5,0.4,0.8,0.9,1,1.5h0.4c0.7-1.4,1.8-2.1,3.3-2.1c1.2,0,2,0.4,2.7,1.1c0.6,0.7,0.9,1.7,0.9,2.9V353.7z"/>
	<path class="st0" d="M650.5,351.1h-0.4c-0.5,1-1.2,1.8-2.1,2.3c-0.9,0.5-1.8,0.7-2.8,0.7c-1,0-1.9-0.2-2.8-0.5
		c-0.9-0.3-1.6-0.8-2.3-1.5s-1.2-1.5-1.5-2.5c-0.4-1-0.6-2.1-0.6-3.4v-0.5c0-1.3,0.2-2.4,0.6-3.3c0.4-1,0.9-1.8,1.5-2.5
		c0.6-0.7,1.4-1.2,2.3-1.5c0.9-0.4,1.8-0.5,2.8-0.5c1.1,0,2,0.2,2.9,0.7c0.9,0.5,1.5,1.2,2,2.2h0.4v-2.4h2.4v12.2
		c0,0.6,0.3,0.9,0.8,0.9h0.8v2.2h-1.6c-0.7,0-1.3-0.2-1.7-0.7c-0.4-0.5-0.7-1-0.7-1.7V351.1z M645.5,351.9c0.7,0,1.4-0.1,2-0.4
		c0.6-0.3,1.1-0.7,1.6-1.1c0.4-0.5,0.8-1.1,1-1.8c0.2-0.7,0.4-1.5,0.4-2.3v-0.4c0-0.8-0.1-1.6-0.4-2.3c-0.2-0.7-0.6-1.3-1-1.8
		c-0.4-0.5-1-0.9-1.6-1.2c-0.6-0.3-1.3-0.4-2-0.4c-0.7,0-1.4,0.1-2,0.4c-0.6,0.3-1.1,0.6-1.6,1.1s-0.8,1.1-1,1.8
		c-0.2,0.7-0.4,1.4-0.4,2.3v0.5c0,1.8,0.5,3.1,1.4,4.1C642.9,351.4,644.1,351.9,645.5,351.9z"/>
	<path class="st0" d="M662.2,344.8h0.5l5.8-6.4h3v0.2l-6.4,7v0.6l7.1,7.4v0.2h-3l-6.5-6.7h-0.6v6.7h-2.4v-21.7h2.4V344.8z"/>
	<path class="st0" d="M679,346.8c0.1,1.5,0.5,2.8,1.4,3.7c0.9,0.9,2.1,1.4,3.7,1.4c0.7,0,1.4-0.1,1.9-0.2s1-0.4,1.4-0.7
		c0.4-0.3,0.7-0.6,0.9-1s0.4-0.8,0.6-1.2l2.3,0.6c-0.4,1.4-1.2,2.6-2.4,3.5c-1.2,0.9-2.7,1.3-4.7,1.3c-1.1,0-2.1-0.2-3-0.6
		c-0.9-0.4-1.7-0.9-2.4-1.6c-0.7-0.7-1.2-1.5-1.5-2.5c-0.4-1-0.6-2-0.6-3.2v-0.7c0-1.1,0.2-2.1,0.6-3c0.4-0.9,0.9-1.7,1.6-2.4
		c0.7-0.7,1.5-1.2,2.4-1.6c0.9-0.4,1.9-0.6,3-0.6c1.3,0,2.3,0.2,3.3,0.7c0.9,0.5,1.7,1,2.3,1.7c0.6,0.7,1,1.4,1.3,2.2
		c0.3,0.8,0.4,1.5,0.4,2.2v2H679z M684.1,340.3c-0.7,0-1.3,0.1-1.9,0.3c-0.6,0.2-1.1,0.5-1.5,0.9s-0.8,0.9-1.1,1.4
		c-0.3,0.5-0.5,1.1-0.5,1.7h9.9c0-0.7-0.2-1.3-0.5-1.8c-0.3-0.5-0.6-1-1.1-1.4c-0.4-0.4-0.9-0.7-1.5-0.9
		C685.3,340.4,684.7,340.3,684.1,340.3z"/>
	<path class="st0" d="M695.3,338.4h5.6v2h0.4c0.4-0.8,0.9-1.5,1.7-1.9c0.7-0.4,1.5-0.6,2.5-0.6c1.5,0,2.8,0.5,3.7,1.5
		c0.9,1,1.5,2.5,1.5,4.4l-2.5,0.4c0-1.4-0.3-2.4-1-3.1s-1.5-0.9-2.5-0.9c-0.6,0-1.2,0.1-1.7,0.4s-0.9,0.6-1.2,1
		c-0.3,0.4-0.5,0.9-0.7,1.5c-0.1,0.6-0.2,1.2-0.2,1.9v6.5h3.9v2.2h-9.8v-2.2h3.5v-10.9h-3.2V338.4z"/>
	<path class="st0" d="M718.3,342.4c0,0.7,0.3,1.3,0.9,1.7c0.6,0.4,1.8,0.6,3.4,0.8c1.8,0.1,3.2,0.6,4.1,1.3c0.9,0.7,1.4,1.7,1.4,3.1
		v0.2c0,0.7-0.1,1.4-0.4,2c-0.3,0.6-0.7,1.1-1.2,1.5c-0.5,0.4-1.2,0.7-1.9,0.9s-1.6,0.3-2.5,0.3c-1.2,0-2.2-0.2-3.1-0.5
		c-0.9-0.3-1.6-0.7-2.1-1.3c-0.6-0.5-1-1.1-1.3-1.8c-0.3-0.7-0.5-1.3-0.5-2l2.3-0.6c0.1,1.2,0.6,2.1,1.4,2.8
		c0.8,0.7,1.9,1.1,3.2,1.1c1.1,0,2-0.2,2.7-0.7c0.7-0.4,1-1.1,1-1.9c0-0.9-0.3-1.5-1-1.9c-0.7-0.4-1.8-0.6-3.3-0.7
		c-1.8-0.1-3.1-0.5-4.1-1.2s-1.4-1.7-1.4-3.1v-0.2c0-0.7,0.2-1.4,0.5-1.9c0.3-0.5,0.7-1,1.3-1.4c0.5-0.4,1.1-0.6,1.8-0.8
		c0.7-0.2,1.4-0.3,2.1-0.3c1,0,1.9,0.1,2.7,0.4s1.4,0.6,1.9,1.1s0.9,1,1.2,1.5c0.3,0.6,0.5,1.2,0.5,1.7l-2.3,0.6
		c-0.1-1-0.5-1.8-1.2-2.3c-0.7-0.6-1.6-0.8-2.7-0.8c-0.4,0-0.9,0-1.3,0.1s-0.8,0.2-1.1,0.4s-0.6,0.4-0.7,0.7S718.3,342,718.3,342.4z
		"/>
</g>
</svg>
