<?xml version="1.0" encoding="utf-8"?>
<!-- Generator: Adobe Illustrator 22.1.0, SVG Export Plug-In . SVG Version: 6.00 Build 0)  -->
<svg version="1.1" id="Layer_1" xmlns="http://www.w3.org/2000/svg" xmlns:xlink="http://www.w3.org/1999/xlink" x="0px" y="0px"
	 viewBox="0 0 1000 700" style="enable-background:new 0 0 1000 700;" xml:space="preserve">
<style type="text/css">
	.st0{fill:#606060;}
	.st1{fill:#FF5E5B;}
</style>
<polygon class="st0" points="296.8,281 271,259.8 245.1,281 218.1,258.8 220.5,256.7 245.1,276.9 271,255.7 296.8,276.9 
	322.6,255.7 348.5,276.9 374.3,255.7 400.1,276.9 425.9,255.7 451.8,276.9 477.6,255.7 503.4,276.9 529.3,255.7 555.1,276.9 
	580.9,255.7 606.7,276.9 632.6,255.7 658.4,276.9 684.2,255.7 710.1,276.9 735.9,255.7 761.7,276.9 786.4,256.7 788.8,258.8 
	761.7,281 735.9,259.8 710.1,281 684.2,259.8 658.4,281 632.6,259.8 606.7,281 580.9,259.8 555.1,281 529.3,259.8 503.4,281 
	477.6,259.8 451.8,281 425.9,259.8 400.1,281 374.3,259.8 348.5,281 322.6,259.8 "/>
<g>
	<g>
		<path class="st1" d="M279.6,211.5h-25.4V107.6h-34.1V83.3h93.5v24.4h-34.1V211.5z"/>
	</g>
	<g>
		<path class="st1" d="M428.1,211.5h-25.4v-44.7c0-1.4-0.2-2.4-0.6-2.9c-0.2-0.1-1.1-0.4-2.8-0.4h-30.7v48.1h-25.4V83.3h47.4
			c6.7,0,12.7,1,17.7,3c5.2,2,9.5,4.7,13,8.2c3.5,3.5,6.2,7.5,8,12.1c1.8,4.5,2.6,9.3,2.6,14.2v5c0,5.3-1.4,10.6-4.3,15.8
			c-1.6,2.9-3.6,5.4-6.1,7.5c0.7,0.6,1.4,1.3,2.1,2c2.8,3.2,4.3,7.5,4.3,12.8V211.5z M402.1,163.8L402.1,163.8L402.1,163.8z
			 M368.6,139H389c6.4,0,11.1-1.2,13.9-3.7c2.6-2.3,3.8-5.8,3.8-10.7v-3c0-4.3-1.3-7.6-4-10.2c-2.7-2.6-7.4-3.9-13.7-3.9h-20.4V139z
			"/>
	</g>
	<g>
		<path class="st1" d="M547.4,211.5H462v-24.4H492v-79.5H462V83.3h85.5v24.4h-30.1v79.5h30.1V211.5z"/>
	</g>
	<g>
		<path class="st1" d="M667.8,211.5h-86.5V83.3h25.4v103.9h61.1V211.5z"/>
	</g>
	<g>
		<path class="st1" d="M786.7,211.5h-86.5V83.3h25.4v103.9h61.1V211.5z"/>
	</g>
</g>
</svg>
